<svg xmlns="http://www.w3.org/2000/svg" xmlns:xlink="http://www.w3.org/1999/xlink" viewBox="0 0 175.36 127.34"><defs><style>.cls-1{fill:none;}.cls-2{fill:#710c10;}.cls-3{fill:#fff;}.cls-4{fill:#ce0505;}.cls-5{fill:#ffda00;}.cls-6{clip-path:url(#clip-path);}.cls-7{fill:#f45700;}.cls-8{fill:#cc0606;}</style><clipPath id="clip-path"><circle class="cls-1" cx="87.22" cy="37.01" r="34.14"/></clipPath></defs><g id="Capa_2" data-name="Capa 2"><g id="Capa_1-2" data-name="Capa 1"><line class="cls-2" x1="145.76" y1="125.18" x2="144.48" y2="127.34"/><path class="cls-3" d="M175.36,90.38a1.66,1.66,0,1,1-1.65-1.62A1.62,1.62,0,0,1,175.36,90.38Zm-2.91,0a1.26,1.26,0,0,0,1.26,1.29,1.23,1.23,0,0,0,1.23-1.28,1.25,1.25,0,1,0-2.49,0Zm1,.84h-.37V89.6a4.28,4.28,0,0,1,.62,0,.84.84,0,0,1,.55.13.41.41,0,0,1,.17.34.42.42,0,0,1-.33.39v0c.15,0,.23.18.28.39a1.46,1.46,0,0,0,.12.4h-.39a1.29,1.29,0,0,1-.13-.4c0-.17-.13-.24-.34-.24h-.18Zm0-.91h.18c.21,0,.38-.07.38-.24s-.11-.24-.35-.24l-.21,0Z"/><ellipse class="cls-4" cx="87.22" cy="36.31" rx="37.18" ry="36.31"/><circle class="cls-5" cx="87.22" cy="37.01" r="34.14"/><path class="cls-3" d="M100.47,63.93l1.54.58.89,1.28.38,1.36a24.09,24.09,0,0,1-2.68,1.29l.05-3.76Z"/><g class="cls-6"><path class="cls-3" d="M60.2,57.87S74.74,78.48,99.46,69.8l.71-1.5.48-3-.33-1.69-.18-.21L99,64.23s-.16.29-.29.32-.79.35-.79.35l-.59.67-.81.29-.78.54-.81.24-1-.55-.41-.52-.42-1.1-.13-1.15L93,62.2l.11-1.39s.06-.94.08-1,.26-1,.26-1v-1.1L93.23,57l-1-2.54-1-2.17-1.32-1.68-.82-.91-2.24-2.83-1.73-1.37a48.78,48.78,0,0,0-5.37-2.2l-.5-1.9.53-1.52L81,39.14l1.85-.65,2,.51,2.36,1.07s.3.42,1.21-.34a11.67,11.67,0,0,1,2.58-1.42l2.12-.4.62-.27L94,36.4l-.21-1.47-.49-1L93,33.76h-.82l-1.83-.3-.53-.83-.13-.9-.34-.84-.42-1-.62-2.73-.71-1.36-.17-.36a3.55,3.55,0,0,0-4.17-.69,12.27,12.27,0,0,0-3.47,1.82l-2.61,2.3-1.69,2L73.1,35.07l-.88,2.09-.84,2.19-.12,1.07-.08.49-.36,1.24-.12.94,0,.78-.43,1.32-.16.83L70,47.17l-.28,1.48-.16.92-.25,1.12-.19.69V52.9l-.89.2L65.82,54l-1.65.89-2.11.52L60.94,56.8l-.74.8"/><path class="cls-4" d="M66.48,26.62V29.5l1.68,3.39,1.49,1.88,1.81,1.63.66.17L74,33.49l1.9-3.09,2.89-2.93,5.06-2.63s3-.57,3.93.86,1.66,6.37,1.66,6.37l2.16,1.69,3.53-.87,3.5-2.24,3.75-4.56,1.21-5.54-.88-4.65-2.22-3.65L98,10,94.72,8.27l-3.85-.76-3.52.24-2.91,1L81.9,10.48l-2.25,2.17L78,15.1l-1.17,0H74.08l-2,1.12-1,1.38.12,2,0,1.06.16.37.06.26-.06.26.35.78,0,.46.1.2.19.4.17.49.32.86.12.72.24.52v.44l.29.57.27.53-.14.38,0,.48-.32.21L73,29l-.85-.14-1.36-.45-1.88-.91-1.58-.88Z"/><path d="M69.77,52.54S69.45,29.18,85,24.45c0,0-14.43.12-16.13,28.09Z"/><path d="M79,56.55s-.64-3.44-2.62-3.8S65,52.9,60.2,57.87l-.66-.82A26.1,26.1,0,0,1,76.1,51.9S79.28,52.14,79,56.55Z"/><path d="M69.28,62.33s7.88,1.23,10.35,8.19l1.13.32A12.68,12.68,0,0,0,69.28,62.33Z"/><path d="M78.32,60.94s-1.9,2.78-4.1,2.63l1.2.64S76.35,64.71,78.32,60.94Z"/><path d="M72.12,36.33A9.78,9.78,0,0,1,67,27l-.86-.65A10.26,10.26,0,0,0,72,36.91"/><path class="cls-7" d="M85.9,39.28s1.23,1.43,2.28.57a14.91,14.91,0,0,1,3.37-1.68l3.84-.64,3.57.64,2.68,2,.76,2.11V44l-1.51-.42-3.17-.92L97,44.42l-1.58,1.91-1.81,1.78-1.42.81H90.67l-2.53-1-1.85-1.27-1.16-1.17a12.83,12.83,0,0,0-3.75-1.61c-1.8-.35-1.85-1.46-1.85-1.46V40.83l1.22-1.57L83,38.84l2.5.48"/><path d="M77.43,16.42s4.76-10,14.73-8.35a13,13,0,0,1,11,12.85c-.22,3.37-1.62,8.29-9.36,12.41l.22.43s10.16-3.76,10.26-13-9.54-15-16.51-13.67C87.79,7.05,79.73,8.35,77.43,16.42Z"/><path d="M78,14.83l-.26.69s-4.09-1.42-5.61,1.3c-1.1,2,.38,6.76,1.24,9.17v0a2.15,2.15,0,0,1,.14.36,2.94,2.94,0,0,1,0,2.38.73.73,0,0,1-.05.09c-.45.56-1.29.91-2.88.14a18.42,18.42,0,0,1-4.1-2.36l-.34-.25.32-.84s5.75,4.2,6.51,3-.46-2.76-1.39-6.05S69.8,13.16,78,14.83Z"/><path d="M93.15,34l-.59,0h-.18l-.67,0a.1.1,0,0,1-.07,0c-3-.33-2.64-2.78-3.16-5.45-.61-3-2.19-3.65-2.19-3.65a3.5,3.5,0,0,1,2.59,2.89c.22,4.14,1.6,5.28,2.67,5.51a1,1,0,0,0,.3.05.15.15,0,0,0,.1,0,4.16,4.16,0,0,0,.93,0l.25.6Z"/><polygon class="cls-8" points="87.21 47.46 89.25 49.85 91.37 52.54 93.03 55.79 93.37 58.56 93.15 60.81 92.96 63.52 93.49 65.74 94.68 66.52 96.9 66.09 98.32 64.7 100.14 63.23 100.71 63.98 102.45 64.69 103.59 63.62 105 61.45 105.55 59.48 106.17 56.99 106.17 54.95 104.38 51.96 101.77 50.77 99.06 49.75 96.32 49.29 94.08 49.13 92.31 48.92 90.67 48.92 89.42 48.55 87.21 47.46"/><path d="M80,36.65s4.84,0,6.49,2C86.46,38.65,85.33,35.36,80,36.65Z"/><path d="M82.07,36.35s1.16-5.28,6.08-2.83c0,0-4.59-3.75-6.77,2.88"/><path d="M85.29,32.9s2.44.2.51,4.76l.41.51s2.14-3.91-.11-5.28"/><path d="M83.66,36.5s0-2.1,1.11-1.67-.18,2-.18,2"/><path d="M87.91,40.22a12.61,12.61,0,0,1,8.63-2.31c4.75.68,5.76,3.15,5.52,6l.57.76a5.52,5.52,0,0,0-.49-4.37c-1.29-2.09-3.18-3.53-7.86-3S87.91,40.22,87.91,40.22Z"/><path d="M102.06,43.91s-4.8-3.61-14.43.76c0,0,9.79-3.61,15,0"/><path d="M87.13,40.07s-5-2.2-6.58-.21c-1.32,1.61-1.16,3.26.83,4,0,0-3.79-.51-2.18-3.56S85.22,38.49,87.13,40.07Z"/><path d="M97.88,42.8,95,42.91l-3.42.48-3.25,1.34a21.44,21.44,0,0,1,8.71-1.65A16.53,16.53,0,0,1,92.26,49l.74-.18s1.9-.27,5.13-5.61Z"/><path d="M85.55,46s8.65,8.1,7.4,14c-1.21,5.73.23,8.12,3.83,6.54s8.65-8.21,1-13.72c0,0,8.36,8.51-2.62,13.54,0,0-2.7.18-1.47-6.32C94.73,54.43,90,49.79,85.55,46Z"/><path d="M93.6,65s.52,2.18,3.2.52l0,0c2.71-1.7-.59,1-.59,1l-1.52.25-.78-.33-.45-.8"/><path d="M92.26,49s12.47-.8,14.09,5.46-3.48,10.28-3.48,10.28l-.66-.46S115.12,50.76,92.26,49Z"/><path d="M94.28,37.26l-.79.1A6,6,0,0,0,93.15,34l0-.05-.25-.6a3.54,3.54,0,0,0,.45-.08,1.81,1.81,0,0,0,.34.56l0,.06C94.36,34.77,94.28,37.26,94.28,37.26Z"/><path d="M97.52,31.91a12.28,12.28,0,0,1-3.85,1.95l-.54.12a4.56,4.56,0,0,1-.57.08h-.18a3.86,3.86,0,0,1-.67,0,.1.1,0,0,1-.07,0l-.09-.7a1.57,1.57,0,0,0,.3.05.15.15,0,0,0,.1,0,4.16,4.16,0,0,0,.93,0,3.54,3.54,0,0,0,.45-.08,10.32,10.32,0,0,0,3.9-2.12Z"/><path d="M88.8,27.47s.76,6.26,3.15,5.93l-.71.36-.75-.46-.64-.67a2.73,2.73,0,0,1-.33-.34c0-.11-.24-.65-.24-.65L89,31"/><path d="M100.65,64.23s2.86-1.1,3.31,3.28l-1,.56S103.55,64.89,100.65,64.23Z"/><path d="M100.05,63.93s.16,4.78-1.38,6.27l1.62-.81s.8-1,.36-6.32"/><path d="M93.31,34.43S91.92,34.35,92,37.7l-.62.21S91,34.26,93.31,34.43Z"/><path d="M92.06,36.17s.93-.26.49,1.39l-.79.27L92,36.15"/><path d="M94.89,50.93s3.84,2,5.16,5.4l.83-.19A13.74,13.74,0,0,0,94.89,50.93Z"/><path d="M92.26,49s-5.64.36-8.7-7.57l-.59.4S85.92,49.6,92.26,49Z"/><path d="M94.26,47.17a3.85,3.85,0,0,1-5.08,1l-.08.41s3.08,1.48,5.3-.62"/><path d="M84.77,41.09s-2,.32-2.41,1.57C82.36,42.66,82.1,40,84.77,41.09Z"/><path d="M89.92,43.74s-4,1.86-5.42-.16l1,1.45a16.36,16.36,0,0,0,6.39-1.44"/><path d="M92.68,48.4s-2.16,1.23-5.53-1.55l.23.68,2,.84,1.47.48,1.45.13.4-.1"/><path d="M85.47,45c1.58.39,4.74-.77,4.74-.77a14.22,14.22,0,0,1,5.47-1.17h-3l-1.09.3-.92.31"/><path d="M100.65,63.07s.58,1.81,2.21.4l-.41,1.22-.69-.3-1.11-.16-.51-.86"/></g><path d="M19.77,87.07l.08-.65a55,55,0,0,0,0-10.26l-.08-.65h7.89v3.8L27,79.17A15.44,15.44,0,0,0,24,79H23.9v1h2.92l-.47,3.12H23.9v.55H24a15.55,15.55,0,0,0,3-.21l.69-.14v3.8Z"/><path class="cls-3" d="M26.75,85.71H20.09a55,55,0,0,0,0-10.42h6.66v2.52a19.68,19.68,0,0,0-3.75-.2v2.12h2.82l-.3,2H23v1.68a19.68,19.68,0,0,0,3.75-.2Z"/><path d="M27.33,87.07l.09-.65a55,55,0,0,0,0-10.26l-.09-.65h4.14v8.11h.1a15.36,15.36,0,0,0,3-.21l.69-.14v3.8Z"/><path class="cls-3" d="M34.32,85.71H27.66a56.67,56.67,0,0,0,0-10.42h2.9v8.1a19.79,19.79,0,0,0,3.76-.2Z"/><path d="M9.78,110C3.57,110,0,105.69,0,98.18c0-9.83,3.37-14.81,10-14.81,5.39,0,8.79,3.69,9.1,9.89l.05.9H10.83l0-.88c0-2-.3-3.07-.61-3.38h0c-.24,0-1.52.61-1.52,8.15,0,4,.81,5.31,1.21,5.31s.88-.86,1.2-2.54l.15-.77,8.2.59-.09.87A9.44,9.44,0,0,1,9.78,110Z"/><path class="cls-3" d="M11.09,99.78C10.83,101.12,10.38,103,9,103s-2.11-2.76-2.11-6.17c0-6,.81-9.07,2.35-9.07,1.13,0,1.67,1.73,1.61,4.32h6.46C17.06,87,14.54,83,9.11,83,2.09,83,0,89.15,0,97c0,6.31,2.57,11,8.88,11a8.53,8.53,0,0,0,8.69-7.7Z"/><path d="M18.66,109.59l.14-1a64.69,64.69,0,0,0,0-17.36l-.14-1h8.75v.91a8,8,0,0,1,4.06-1.06,5.91,5.91,0,0,1,4.36,1.7,7.53,7.53,0,0,1,1.81,6l0,.72-7.8.81,0-1c0-1.51-.22-2.06-.42-2.27A.54.54,0,0,0,29,96c-1,0-1.47,1.85-1.58,3.57v10.07Z"/><path class="cls-3" d="M25.61,107.53H18.79a65.65,65.65,0,0,0,0-17.6h6.82v1.83a6.91,6.91,0,0,1,5-2c3.47,0,5.55,2.59,5.27,6.76l-6,.63c0-1.56-.17-3.27-1.72-3.27s-2.34,2.19-2.48,4.38Z"/><path d="M46,109.94c-5.84,0-9.61-3.75-9.61-9.54,0-6.18,4-10.5,9.61-10.5,6.07,0,8.84,3.58,8.84,6.9a6,6,0,0,1-3.54,5.54l3.25,2.4-.21.58C53.69,107.24,50.66,109.94,46,109.94Zm.33-13.63c-.89,0-1.23,1.54-1.36,2.69a3,3,0,0,0,1.17-.44A1.58,1.58,0,0,0,47,97.15C47,96.31,46.52,96.31,46.35,96.31Z"/><path class="cls-3" d="M36.41,99.21c0-5.18,3.13-9.63,8.71-9.63,5.74,0,7.94,3.31,7.94,6,0,4.4-4.59,6.21-9.61,5.76A2.38,2.38,0,0,0,45.79,103a4.38,4.38,0,0,0,3.5-1.61l3.32,2.46c-.56,1.61-3.3,4-7.49,4C39.31,107.89,36.41,104,36.41,99.21ZM47,96c0-1-.54-1.71-1.5-1.71-1.69,0-2.25,2.19-2.33,4.51C44.92,98.81,47,98,47,96Z"/><path d="M63.12,110c-5.51,0-9-3-9.7-6l-.16-.73,5.18-1.84c-2.26-.77-4.45-2-4.45-4.9,0-3.76,3.74-6.5,8.88-6.5,5.49,0,9.32,2.46,9.32,6A7.89,7.89,0,0,1,71,100.22l-.34.58-1.3-.33a4.21,4.21,0,0,1,2.43,4C71.77,107.7,68.21,110,63.12,110Zm-3.3-8.17a3.57,3.57,0,0,0,3,1.92c.68,0,.68-.21.68-.4,0-.53-1.64-1-3-1.33Zm3.39-6.22c-.83,0-.85,1.08-.85,1.2a1.66,1.66,0,0,0,1,1.54l.23-.41A2.4,2.4,0,0,0,64,96.6C64,95.6,63.46,95.6,63.21,95.6Z"/><path class="cls-3" d="M53.4,102.6l4.68-1.66a4.47,4.47,0,0,0,3.83,2.47c1,0,1.58-.4,1.58-1.26,0-2.82-9.5-1.48-9.5-6.84,0-3.19,3.27-5.63,8-5.63s8.42,1.86,8.42,5.1a7,7,0,0,1-1.1,3.82l-5.8-1.45A3.23,3.23,0,0,0,64,95.41c0-1.18-.62-1.86-1.69-1.86a1.84,1.84,0,0,0-1.75,2.06c0,4.45,9.41,2.11,9.41,7.62,0,3-3.49,4.71-7.75,4.71C57.38,107.94,54,105.35,53.4,102.6Z"/><path d="M82.3,110.09C74,110.09,74,103.35,74,97.93v-.14H71.87l-1.32-6.23H74l0-6.31h9l-.13,1c-.16,1.19-.31,3.22-.41,5.34h6.22l-1.28,6.23H82.3V98c-.07,2.1-.16,5,.31,5.44a3.71,3.71,0,0,0,.52-1.79l.1-.91L90.68,102l-.07.79A8,8,0,0,1,82.3,110.09Z"/><path class="cls-3" d="M74,96.74v-1H71.71l-1-4.5H74l0-6.32h7.07c-.2,1.49-.37,4-.45,6.32H86.7l-.93,4.5H80.52c-.11,4-.36,7.37,1.08,7.37,1.15,0,1.43-1.74,1.52-2.52l5.69.93A7.09,7.09,0,0,1,81.4,108C74.16,108,74,102.65,74,96.74Z"/><path d="M89.43,109.59l.1-1a97.68,97.68,0,0,0,0-17.44l-.1-.94H92c-2.59-.67-2.82-2.54-2.82-3.19,0-.81.35-3.43,5-3.43S99,86.26,99,87.07a3.27,3.27,0,0,1-2.8,3.19h2.43l0,.91a165,165,0,0,0,0,17.51l0,.91Z"/><path class="cls-3" d="M89.16,85.88c0-1.31,1-2.57,4-2.57s4,1.26,4,2.57-1,2.56-4,2.56S89.16,87.19,89.16,85.88Zm.36,21.65a95.81,95.81,0,0,0,0-17.6h7.3a166.65,166.65,0,0,0,0,17.6Z"/><path d="M114.63,109.59l0-.9a9.24,9.24,0,0,0-.48-3.41v4.31h-9l.14-1a121.87,121.87,0,0,0,0-23.7l-.14-1h6.5c.4,0,.9,0,1.45-.06.75,0,1.6-.07,2.49-.07,1.9,0,4.62.16,6.37,1.59,3.63,3,2.47,13.89.31,16.46a6.07,6.07,0,0,1-1.15,1.12l3.45,6.63Zm-.45-11.26c.89,0,1.17-.32,1.34-.63.75-1.52.92-5.79.07-7.58-.06-.11-.17-.35-1-.35l-.43,0v8.54Z"/><path class="cls-3" d="M112.38,107.53h-7a121.21,121.21,0,0,0,0-23.94h5.47c2.23,0,7.3-.73,9.72,1.26,3,2.49,2.23,12.85.2,15.26a5.13,5.13,0,0,1-1.61,1.36l3.16,6.06h-7.61a9.23,9.23,0,0,0-1.35-5.4h-.93Zm0-9.53h.9a2.17,2.17,0,0,0,2.14-1.11c.87-1.76,1-6.31.09-8.32-.51-1-1.89-.91-3.13-.73Z"/><path d="M133.1,109.89c-6.83,0-9.88-5-9.88-10,0-6,3.88-9.9,9.88-9.9S143,93.89,143,99.9C143,104.87,139.94,109.89,133.1,109.89Zm0-14.09c-1,0-1.63,2.08-1.63,4,0,2.35.73,4.26,1.63,4.26s1.67-2,1.67-4.26S134,95.8,133.1,95.8Z"/><path class="cls-3" d="M123.22,98.7c0-4.82,2.84-9,9-9s9,4.2,9,9-2.9,9.13-9,9.13S123.22,103.41,123.22,98.7Zm11.55-.1c0-2.21-.82-4.85-2.57-4.85s-2.53,2.64-2.53,4.85c0,2.37.73,5.14,2.53,5.14S134.77,101,134.77,98.6Z"/><path d="M142.49,118.59c-4.54,0-7.66-2.54-8.36-6.79L134,111l7.7-1.7.13.93c.19,1.3.56,1.72.72,1.72a.23.23,0,0,0,.19-.07c.83-.8.89-5.28.82-10,0-2.21-.24-6.4-.61-10.67l-.09-.94h2.37a3.23,3.23,0,0,1-2.68-3.21c0-1,.48-3.48,4.9-3.48s4.87,2.43,4.87,3.48a3.23,3.23,0,0,1-2.66,3.21h2.13l0,14.44c0,4.24-.2,9-3,11.69A8.77,8.77,0,0,1,142.49,118.59Z"/><path class="cls-3" d="M134.12,110.48l5.92-1.31c.11.78.45,2.46,1.61,2.46,1.63,0,2-2.51,1.91-10.94,0-2.26-.25-6.56-.62-10.74H150l0,13.58c0,6.42-.54,13-8.43,13C137,116.54,134.66,113.75,134.12,110.48Zm8.43-24.6c0-1.36.93-2.62,4-2.62s4,1.26,4,2.62-.93,2.61-4,2.61S142.55,87.24,142.55,85.88Z"/><path d="M161.74,109.89c-6.83,0-9.89-5-9.89-10,0-6,3.88-9.9,9.89-9.9s9.89,3.89,9.89,9.9C171.63,104.87,168.57,109.89,161.74,109.89Zm0-14.09c-1,0-1.63,2.08-1.63,4,0,2.35.73,4.26,1.63,4.26s1.66-2,1.66-4.26S162.63,95.8,161.74,95.8Z"/><path class="cls-3" d="M151.85,98.7c0-4.82,2.85-9,9-9s9,4.2,9,9-2.9,9.13-9,9.13S151.85,103.41,151.85,98.7Zm11.55-.1c0-2.21-.81-4.85-2.56-4.85s-2.54,2.64-2.54,4.85c0,2.37.74,5.14,2.54,5.14S163.4,101,163.4,98.6Z"/><line class="cls-1" x1="16.83" y1="92.11" x2="16.58" y2="92.11"/><path class="cls-5" d="M35.87,113.18H126c2.68,0,4.85,4.38,4.85,9.78H42.58c-3.71,0-6.71-4.38-6.71-9.78Z"/><path d="M44.87,120.64l-.14-1h-.91l-.13,1H43l.81-5h1.07l.82,5ZM43.92,119h.71l-.35-2.53Z"/><path d="M47.52,119.45v-.28h.75v.34c0,.32.13.49.41.49s.41-.17.41-.5a1,1,0,0,0-.15-.55,2.44,2.44,0,0,0-.54-.58,3.41,3.41,0,0,1-.68-.78,1.63,1.63,0,0,1-.2-.79,1.1,1.1,0,0,1,1.18-1.25c.75,0,1.15.45,1.15,1.26V117H49.1v-.26c0-.33-.13-.49-.39-.49s-.41.16-.41.48a.89.89,0,0,0,.15.5,3.06,3.06,0,0,0,.55.57,3,3,0,0,1,.68.79,1.7,1.7,0,0,1,.19.83c0,.82-.41,1.27-1.19,1.27S47.52,120.26,47.52,119.45Z"/><path d="M53.64,120.64l-.14-1h-.91l-.14,1h-.73l.82-5h1.07l.81,5Zm-1-1.66h.71L53,116.45Z"/><path d="M56.44,120.64v-5h1.21c.78,0,1.18.42,1.18,1.24v2.54c0,.83-.4,1.24-1.18,1.24Zm.79-.71h.4c.27,0,.41-.17.41-.49v-2.61c0-.33-.14-.49-.41-.49h-.4Z"/><path d="M61,120.64v-5h2.15v.72H61.79v1.33h1.09v.71H61.79v1.55h1.36v.71Z"/><path d="M65.22,120.64v-5h1.17a1,1,0,0,1,1.17,1.16v.31q0,.78-.51,1h0c.35.11.52.47.52,1.06V120a1.79,1.79,0,0,0,.08.61h-.8a2,2,0,0,1-.07-.61v-.92c0-.46-.13-.62-.49-.62H66v2.15Zm.79-2.87h.29c.32,0,.47-.15.47-.53v-.38c0-.35-.13-.52-.4-.52H66Z"/><path d="M69.7,116.81a1.2,1.2,0,1,1,2.4,0v2.64a1.2,1.2,0,1,1-2.4,0Zm1.61,0c0-.33-.14-.49-.41-.49s-.41.16-.41.49v2.74c0,.33.14.5.41.5s.41-.17.41-.5Z"/><path d="M77.07,120.64v-5h1.17a1,1,0,0,1,1.17,1.16v.31a1,1,0,0,1-.52,1h0c.35.11.52.47.52,1.06V120a1.53,1.53,0,0,0,.09.61h-.8a2,2,0,0,1-.07-.61v-.92c0-.46-.13-.62-.5-.62h-.27v2.15Zm.79-2.87h.28c.32,0,.48-.15.48-.53v-.38c0-.35-.14-.52-.4-.52h-.36Z"/><path d="M81.61,120.64v-5h2.15v.72H82.39v1.33h1.09v.71H82.39v1.55h1.37v.71Z"/><path d="M85.71,119.45v-.28h.74v.34c0,.32.14.49.41.49s.42-.17.42-.5a1,1,0,0,0-.15-.55,3,3,0,0,0-.54-.58,3.49,3.49,0,0,1-.69-.78,1.62,1.62,0,0,1-.19-.79c0-.8.4-1.25,1.17-1.25S88,116,88,116.81V117h-.75v-.26c0-.33-.13-.49-.39-.49s-.4.16-.4.48a.89.89,0,0,0,.15.5,3.29,3.29,0,0,0,.54.57,3,3,0,0,1,.68.79,1.7,1.7,0,0,1,.2.83,1.11,1.11,0,0,1-1.19,1.27C86.1,120.71,85.71,120.26,85.71,119.45Z"/><path d="M90.76,120.64v-4.3h-.83v-.72h2.44v.72h-.82v4.3Z"/><path d="M95.77,120.64l-.13-1h-.91l-.14,1h-.73l.82-5h1.07l.81,5ZM94.83,119h.71l-.36-2.53Z"/><path d="M98.54,115.62h.79v3.89c0,.32.14.49.4.49s.4-.17.4-.49v-3.89h.76v3.83c0,.81-.41,1.26-1.17,1.26a1.1,1.1,0,0,1-1.18-1.26Z"/><path d="M103.1,120.64v-5h1.17a1,1,0,0,1,1.17,1.16v.31a1,1,0,0,1-.52,1h0c.35.11.52.47.52,1.06V120a1.53,1.53,0,0,0,.09.61h-.8a1.91,1.91,0,0,1-.08-.61v-.92c0-.46-.12-.62-.49-.62h-.27v2.15Zm.79-2.87h.28c.32,0,.48-.15.48-.53v-.38c0-.35-.14-.52-.4-.52h-.36Z"/><path d="M109.35,120.64l-.14-1h-.91l-.13,1h-.73l.81-5h1.07l.82,5ZM108.4,119h.71l-.36-2.53Z"/><path d="M112.16,120.64v-5h1l.8,3v-3h.7v5h-.79l-1-3.66v3.66Z"/><path d="M117.48,120.64v-4.3h-.82v-.72h2.44v.72h-.83v4.3Z"/><path d="M121.12,120.64v-5h2.16v.72h-1.37v1.33H123v.71h-1.09v1.55h1.37v.71Z"/></g></g></svg>