<svg xmlns="http://www.w3.org/2000/svg" xmlns:xlink="http://www.w3.org/1999/xlink" viewBox="0 0 158.33 114.98"><defs><style>.cls-1{fill:none;}.cls-2{fill:#710c10;}.cls-3{fill:#fff;}.cls-4{fill:#ce0505;}.cls-5{fill:#ffda00;}.cls-6{clip-path:url(#clip-path);}.cls-7{fill:#f45700;}.cls-8{fill:#cc0606;}</style><clipPath id="clip-path"><circle class="cls-1" cx="78.75" cy="33.42" r="30.83"/></clipPath></defs><g id="Capa_2" data-name="Capa 2"><g id="Capa_1-2" data-name="Capa 1"><line class="cls-2" x1="131.61" y1="113.03" x2="130.45" y2="114.98"/><path class="cls-3" d="M158.33,81.61a1.5,1.5,0,1,1-1.48-1.46A1.47,1.47,0,0,1,158.33,81.61Zm-2.62,0a1.14,1.14,0,0,0,1.14,1.17A1.12,1.12,0,0,0,158,81.62a1.13,1.13,0,1,0-2.25,0Zm.9.76h-.34V80.91a3.48,3.48,0,0,1,.56,0,.8.8,0,0,1,.5.12.36.36,0,0,1,.15.31.38.38,0,0,1-.31.35v0c.15,0,.22.16.26.35a1.54,1.54,0,0,0,.11.36h-.36a1.28,1.28,0,0,1-.11-.36c0-.15-.12-.22-.3-.22h-.16Zm0-.82h.16c.19,0,.34-.06.34-.21s-.1-.23-.31-.23l-.19,0Z"/><ellipse class="cls-4" cx="78.75" cy="32.79" rx="33.57" ry="32.79"/><circle class="cls-5" cx="78.75" cy="33.42" r="30.83"/><path class="cls-3" d="M90.72,57.72l1.39.52.8,1.17.35,1.22a20.78,20.78,0,0,1-2.43,1.16l0-3.39Z"/><g class="cls-6"><path class="cls-3" d="M54.35,52.25S67.48,70.86,89.81,63l.63-1.36.44-2.73-.3-1.54-.16-.18L89.35,58s-.15.27-.26.29-.71.32-.71.32l-.54.6-.72.27-.71.48-.74.22-.88-.5-.37-.47-.38-1-.13-1,.1-1,.1-1.26s0-.84.07-.92.24-.94.24-.94v-1l-.24-.6-.87-2.3-.92-1.95-1.2-1.53-.74-.82-2-2.55-1.56-1.23a45.17,45.17,0,0,0-4.86-2l-.45-1.72L72.05,36l1-.65,1.68-.58,1.77.46,2.13,1s.27.37,1.09-.31a11,11,0,0,1,2.33-1.28L84,34.23l.56-.25.31-1.11-.19-1.33-.44-.89L84,30.48h-.74l-1.66-.27-.48-.75L81,28.65l-.3-.76L80.32,27l-.56-2.47-.64-1.23L79,23a3.2,3.2,0,0,0-3.77-.62A11.11,11.11,0,0,0,72.07,24l-2.35,2.08-1.53,1.79L66,31.66l-.81,1.89-.75,2-.11,1-.07.44-.33,1.11-.11.85v.71l-.39,1.19-.14.75-.11,1-.26,1.33-.14.84-.23,1-.16.62v1.37l-.81.19-2.15.79-1.49.8L56,50l-1,1.28-.67.71"/><path class="cls-4" d="M60,24v2.61l1.52,3.05,1.35,1.7,1.64,1.48.59.15,1.7-2.78,1.71-2.79,2.61-2.65,4.57-2.37s2.73-.52,3.55.77S80.75,29,80.75,29l2,1.52,3.18-.79,3.17-2,3.38-4.11,1.1-5-.81-4.2-2-3.3L88.51,9l-3-1.56-3.48-.69L78.87,7l-2.62.91L74,9.46l-2,2-1.49,2.21-1,0H66.89l-1.77,1-.89,1.25.11,1.79,0,1,.15.33,0,.24,0,.23.3.71,0,.41.09.19.18.36.15.43.29.78.11.65.22.47v.4l.26.51.25.48-.13.34,0,.44-.29.19,0,.39L65.12,26l-1.23-.42L62.2,24.8,60.76,24Z"/><path d="M63,47.44s-.29-21.09,13.76-25.37c0,0-13,.11-14.56,25.37Z"/><path d="M71.33,51.06S70.75,48,69,47.63s-10.25.13-14.62,4.62l-.59-.73a23.51,23.51,0,0,1,14.95-4.66S71.59,47.08,71.33,51.06Z"/><path d="M62.55,56.28s7.12,1.11,9.35,7.39l1,.29A11.44,11.44,0,0,0,62.55,56.28Z"/><path d="M70.71,55S69,57.53,67,57.4L68.1,58S68.94,58.43,70.71,55Z"/><path d="M65.12,32.81a8.83,8.83,0,0,1-4.62-8.42l-.78-.58A9.28,9.28,0,0,0,65,33.33"/><path class="cls-7" d="M77.56,35.47s1.11,1.29,2.06.51a13.24,13.24,0,0,1,3-1.51l3.47-.58,3.22.58,2.43,1.76.68,1.91v1.59l-1.36-.38-2.87-.83-.68,1.58-1.42,1.73L84.5,43.44l-1.29.73H81.87l-2.29-.91-1.66-1.14-1-1a11.76,11.76,0,0,0-3.39-1.46c-1.63-.31-1.67-1.32-1.67-1.32V36.87l1.1-1.42,2-.38,2.26.43"/><path d="M69.91,14.83s4.3-9.06,13.3-7.54a11.73,11.73,0,0,1,10,11.6c-.19,3-1.46,7.48-8.45,11.2l.2.39s9.17-3.4,9.27-11.77S85.56,5.19,79.27,6.37C79.27,6.37,72,7.54,69.91,14.83Z"/><path d="M70.42,13.39l-.24.62s-3.69-1.28-5.06,1.17c-1,1.81.34,6.11,1.12,8.29h0a2.76,2.76,0,0,1,.12.33,2.68,2.68,0,0,1,0,2.15.18.18,0,0,0,0,.08c-.41.51-1.17.82-2.6.12A16.24,16.24,0,0,1,60,24l-.3-.22.29-.76s5.19,3.79,5.88,2.74-.42-2.49-1.26-5.45S63,11.88,70.42,13.39Z"/><path d="M84.11,30.73l-.53,0h-.17l-.6,0h-.07c-2.71-.3-2.38-2.51-2.85-4.93-.55-2.75-2-3.29-2-3.29a3.17,3.17,0,0,1,2.33,2.61c.2,3.74,1.45,4.76,2.41,5a1.26,1.26,0,0,0,.27,0,.13.13,0,0,0,.09,0,3.39,3.39,0,0,0,.84,0l.23.54Z"/><polygon class="cls-8" points="78.74 42.85 80.59 45.01 82.5 47.44 84 50.37 84.31 52.87 84.11 54.9 83.93 57.35 84.42 59.36 85.49 60.06 87.49 59.67 88.77 58.42 90.42 57.09 90.93 57.77 92.5 58.41 93.53 57.44 94.81 55.48 95.3 53.71 95.86 51.46 95.86 49.61 94.25 46.91 91.89 45.84 89.44 44.92 86.97 44.5 84.94 44.36 83.35 44.17 81.87 44.17 80.74 43.83 78.74 42.85"/><path d="M72.21,33.09s4.36,0,5.86,1.81C78.07,34.9,77.05,31.93,72.21,33.09Z"/><path d="M74.1,32.82s1.05-4.77,5.49-2.56c0,0-4.15-3.38-6.11,2.61"/><path d="M77,29.71s2.2.18.46,4.3l.37.46s1.94-3.54-.1-4.78"/><path d="M75.54,33s0-1.9,1-1.51-.17,1.8-.17,1.8"/><path d="M79.38,36.31a11.35,11.35,0,0,1,7.79-2.08c4.29.61,5.2,2.85,5,5.42l.51.69a5,5,0,0,0-.43-4c-1.17-1.89-2.88-3.19-7.1-2.76S79.38,36.31,79.38,36.31Z"/><path d="M92.15,39.65s-4.33-3.26-13,.69c0,0,8.85-3.26,13.54,0"/><path d="M78.67,36.18s-4.48-2-5.94-.19c-1.19,1.45-1,2.95.75,3.62,0,0-3.42-.46-2-3.21S77,34.76,78.67,36.18Z"/><path d="M88.38,38.65l-2.6.09-3.08.44-2.94,1.21a19.29,19.29,0,0,1,7.87-1.49,15.06,15.06,0,0,1-4.32,5.3L84,44s1.71-.25,4.62-5.07Z"/><path d="M77.24,41.55s7.81,7.31,6.69,12.66c-1.09,5.17.2,7.34,3.45,5.91s7.82-7.42.88-12.39c0,0,7.54,7.68-2.37,12.22,0,0-2.44.17-1.32-5.7C85.53,49.15,81.28,45,77.24,41.55Z"/><path d="M84.52,58.69s.46,2,2.88.47l0,0c2.45-1.54-.54.94-.54.94l-1.36.22L84.82,60l-.4-.72"/><path d="M83.31,44.2S94.57,43.48,96,49.13s-3.13,9.28-3.13,9.28l-.6-.41S104,45.83,83.31,44.2Z"/><path d="M85.13,33.64l-.71.09a5.52,5.52,0,0,0-.31-3l0-.05-.23-.54a2,2,0,0,0,.41-.08,1.65,1.65,0,0,0,.3.51l.05.06C85.2,31.4,85.13,33.64,85.13,33.64Z"/><path d="M88.05,28.81a10.89,10.89,0,0,1-3.48,1.76l-.48.11a4.07,4.07,0,0,1-.51.07h-.17a2.43,2.43,0,0,1-.6,0h-.07l-.08-.63.27,0a.13.13,0,0,0,.09,0,3.39,3.39,0,0,0,.84,0,2,2,0,0,0,.41-.08,9.27,9.27,0,0,0,3.52-1.91Z"/><path d="M80.18,24.8s.69,5.66,2.84,5.36l-.63.32-.68-.42-.59-.6a1.83,1.83,0,0,1-.29-.31c0-.09-.22-.58-.22-.58L80.4,28"/><path d="M90.88,58s2.58-1,3,3l-.94.51S93.5,58.59,90.88,58Z"/><path d="M90.34,57.73s.14,4.31-1.25,5.65l1.46-.72s.73-.94.33-5.71"/><path d="M84.25,31.09S83,31,83,34l-.55.19S82.13,30.94,84.25,31.09Z"/><path d="M83.12,32.66s.84-.24.44,1.26l-.71.24L83,32.64"/><path d="M85.67,46s3.48,1.84,4.67,4.87l.75-.17A12.42,12.42,0,0,0,85.67,46Z"/><path d="M83.31,44.2s-5.1.33-7.86-6.84l-.54.37S77.58,44.78,83.31,44.2Z"/><path d="M85.11,42.59a3.47,3.47,0,0,1-4.58.88l-.08.36s2.78,1.34,4.79-.56"/><path d="M76.54,37.1s-1.8.29-2.18,1.42C74.36,38.52,74.13,36.12,76.54,37.1Z"/><path d="M81.19,39.5s-3.6,1.67-4.9-.15l.88,1.31a14.78,14.78,0,0,0,5.77-1.3"/><path d="M83.69,43.7s-2,1.11-5-1.4l.21.61,1.78.76,1.33.44,1.31.11.37-.09"/><path d="M77.17,40.66c1.43.35,4.28-.7,4.28-.7a13,13,0,0,1,4.94-1.05h-2.7l-1,.28-.83.27"/><path d="M90.88,57s.52,1.63,2,.36l-.38,1.1-.62-.27-1-.14-.46-.78"/></g><path d="M17.85,78.62l.08-.59a51.15,51.15,0,0,0,0-9.26l-.08-.59H25v3.43l-.62-.13a14.43,14.43,0,0,0-2.65-.18h-.12v.89h2.64L23.79,75H21.58v.49h.09a14.66,14.66,0,0,0,2.68-.18l.62-.13v3.43Z"/><path class="cls-3" d="M24.16,77.39h-6a49.31,49.31,0,0,0,0-9.41h6v2.28a17.67,17.67,0,0,0-3.39-.19V72h2.55L23,73.77H20.77V75.3a17.67,17.67,0,0,0,3.39-.19Z"/><path d="M24.68,78.62l.08-.59a51.15,51.15,0,0,0,0-9.26l-.08-.59h3.73V75.5h.09a14.66,14.66,0,0,0,2.68-.18l.62-.13v3.43Z"/><path class="cls-3" d="M31,77.39H25A49.31,49.31,0,0,0,25,68H27.6V75.3A17.67,17.67,0,0,0,31,75.11Z"/><path d="M8.83,99.32C3.22,99.32,0,95.43,0,88.65c0-8.88,3-13.38,9-13.38,4.87,0,8,3.34,8.23,8.93l0,.82H9.78v-.8c.05-1.81-.27-2.77-.55-3h0c-.21,0-1.37.56-1.37,7.36,0,3.62.74,4.79,1.1,4.79S9.73,92.55,10,91l.13-.69,7.41.53-.08.79A8.52,8.52,0,0,1,8.83,99.32Z"/><path class="cls-3" d="M10,90.09C9.78,91.3,9.37,93,8.13,93s-1.91-2.5-1.91-5.57c0-5.46.73-8.19,2.12-8.19,1,0,1.51,1.56,1.45,3.89h5.84C15.4,78.53,13.13,75,8.22,75,1.88,75,0,80.49,0,87.58c0,5.69,2.32,9.88,8,9.88a7.69,7.69,0,0,0,7.84-6.95Z"/><path d="M16.85,99l.13-.89a58.8,58.8,0,0,0,0-15.68l-.13-.89h7.9v.83a7.25,7.25,0,0,1,3.67-1,5.32,5.32,0,0,1,3.93,1.54A6.76,6.76,0,0,1,34,88.29l0,.66-7,.73,0-.88c0-1.36-.2-1.86-.39-2a.43.43,0,0,0-.35-.12c-.9,0-1.33,1.66-1.43,3.22V99Z"/><path class="cls-3" d="M23.13,97.09H17A59.54,59.54,0,0,0,17,81.2h6.16v1.65a6.21,6.21,0,0,1,4.47-1.79c3.13,0,5,2.34,4.76,6.11l-5.44.57c0-1.41-.16-3-1.56-3s-2.11,2-2.23,4Z"/><path d="M41.55,99.26c-5.27,0-8.68-3.38-8.68-8.61,0-5.58,3.57-9.47,8.68-9.47,5.49,0,8,3.22,8,6.22a5.44,5.44,0,0,1-3.2,5l2.93,2.17-.18.53C48.48,96.83,45.74,99.26,41.55,99.26Zm.3-12.3c-.81,0-1.11,1.39-1.23,2.43a2.83,2.83,0,0,0,1.06-.4,1.42,1.42,0,0,0,.71-1.27C42.39,87,42,87,41.85,87Z"/><path class="cls-3" d="M32.87,89.58c0-4.68,2.83-8.7,7.87-8.7s7.17,3,7.17,5.45c0,4-4.15,5.61-8.68,5.2A2.15,2.15,0,0,0,41.35,93a3.92,3.92,0,0,0,3.15-1.46l3,2.23c-.51,1.45-3,3.63-6.76,3.63C35.49,97.41,32.87,93.91,32.87,89.58Zm9.52-2.93c0-.93-.48-1.55-1.35-1.55-1.53,0-2,2-2.11,4.07C40.56,89.21,42.39,88.44,42.39,86.65Z"/><path d="M57,99.31c-5,0-8.17-2.73-8.76-5.44l-.14-.65,4.68-1.66c-2-.7-4-1.84-4-4.43,0-3.4,3.37-5.86,8-5.86,5,0,8.42,2.21,8.42,5.39a7.15,7.15,0,0,1-1.09,3.83l-.31.52-1.17-.29a3.79,3.79,0,0,1,2.19,3.56C64.8,97.24,61.59,99.31,57,99.31Zm-3-7.37a3.23,3.23,0,0,0,2.7,1.73c.62,0,.62-.19.62-.36,0-.48-1.49-.88-2.68-1.2Zm3.06-5.62c-.74,0-.76,1-.76,1.08a1.48,1.48,0,0,0,.91,1.39l.2-.37a2.1,2.1,0,0,0,.36-1.2C57.78,86.32,57.3,86.32,57.07,86.32Z"/><path class="cls-3" d="M48.22,92.64l4.22-1.5a4,4,0,0,0,3.46,2.23c.87,0,1.43-.36,1.43-1.14,0-2.54-8.58-1.34-8.58-6.17,0-2.89,3-5.09,7.2-5.09s7.61,1.68,7.61,4.61a6.4,6.4,0,0,1-1,3.45l-5.24-1.32a2.88,2.88,0,0,0,.45-1.56c0-1.07-.56-1.68-1.52-1.68a1.66,1.66,0,0,0-1.58,1.86c0,4,8.5,1.91,8.5,6.88,0,2.68-3.16,4.25-7,4.25C51.8,97.46,48.75,95.12,48.22,92.64Z"/><path d="M74.31,99.4c-7.5,0-7.5-6.08-7.5-11V88.3H64.89L63.7,82.68h3.11l0-5.71H75l-.11.88c-.15,1.08-.29,2.91-.37,4.83h5.61L78.92,88.3H74.31v.22c-.06,1.9-.14,4.5.28,4.91a3.36,3.36,0,0,0,.47-1.61l.09-.83,6.74,1.1-.07.72A7.22,7.22,0,0,1,74.31,99.4Z"/><path class="cls-3" d="M66.81,87.35v-.91H64.74l-.86-4.06h2.93l0-5.7h6.39c-.18,1.34-.33,3.61-.41,5.7h5.47l-.84,4.06H72.71c-.1,3.61-.33,6.66,1,6.66,1,0,1.3-1.57,1.38-2.27l5.14.84a6.4,6.4,0,0,1-6.69,5.88C67,97.55,66.81,92.69,66.81,87.35Z"/><path d="M80.75,99l.08-.86a86.2,86.2,0,0,0,0-15.74l-.08-.86h2.3a2.94,2.94,0,0,1-2.55-2.87c0-.73.32-3.1,4.48-3.1s4.45,2.37,4.45,3.1a3,3,0,0,1-2.54,2.87h2.2l0,.83a154.4,154.4,0,0,0,0,15.81l0,.82Z"/><path class="cls-3" d="M80.5,77.54c0-1.18.86-2.32,3.66-2.32s3.64,1.14,3.64,2.32-.86,2.32-3.64,2.32S80.5,78.72,80.5,77.54Zm.33,19.55a87.85,87.85,0,0,0,0-15.89h6.59a150.4,150.4,0,0,0,0,15.89Z"/><path d="M103.5,99l0-.81a8.33,8.33,0,0,0-.44-3.08V99H95l.12-.89a109.3,109.3,0,0,0,0-21.4L95,75.77h5.87c.36,0,.8,0,1.31,0,.67,0,1.44-.07,2.24-.07,1.72,0,4.18.15,5.75,1.44,3.28,2.68,2.23,12.55.28,14.87a5.71,5.71,0,0,1-1,1l3.11,6Zm-.41-10.17c.81,0,1.06-.28,1.21-.56a11,11,0,0,0,.06-6.85c0-.1-.15-.31-.88-.31h-.39v7.71Z"/><path class="cls-3" d="M101.47,97.09H95.11a110,110,0,0,0,0-21.62H100c2,0,6.59-.65,8.78,1.14,2.75,2.25,2,11.6.18,13.78a4.65,4.65,0,0,1-1.45,1.23l2.85,5.47h-6.87a8.39,8.39,0,0,0-1.22-4.88h-.84Zm0-8.6h.81a2,2,0,0,0,1.94-1,11.72,11.72,0,0,0,.07-7.52c-.46-.93-1.7-.82-2.82-.66Z"/><path d="M120.18,99.22c-6.17,0-8.93-4.53-8.93-9,0-5.43,3.51-8.93,8.93-8.93s8.93,3.5,8.93,8.93C129.11,94.69,126.35,99.22,120.18,99.22Zm0-12.72c-.91,0-1.47,1.87-1.47,3.61,0,2.12.66,3.85,1.47,3.85s1.5-1.8,1.5-3.85S121,86.5,120.18,86.5Z"/><path class="cls-3" d="M111.25,89.12c0-4.36,2.57-8.15,8.12-8.15s8.12,3.79,8.12,8.15-2.63,8.25-8.12,8.25S111.25,93.37,111.25,89.12ZM121.68,89c0-2-.73-4.38-2.31-4.38S117.08,87,117.08,89s.66,4.63,2.29,4.63S121.68,91.17,121.68,89Z"/><path d="M128.66,107.08c-4.1,0-6.92-2.29-7.55-6.13l-.11-.72,6.94-1.54.12.85c.17,1.17.51,1.55.65,1.55a.19.19,0,0,0,.17-.06c.75-.73.8-4.77.75-9,0-2-.22-5.78-.56-9.64l-.08-.84h2.14a2.92,2.92,0,0,1-2.42-2.9c0-1,.43-3.14,4.42-3.14s4.4,2.19,4.4,3.14a2.92,2.92,0,0,1-2.4,2.9h1.92l0,13c0,3.82-.18,8.11-2.72,10.55A8,8,0,0,1,128.66,107.08Z"/><path class="cls-3" d="M121.1,99.75l5.34-1.18c.11.7.41,2.22,1.46,2.22,1.47,0,1.83-2.27,1.73-9.87,0-2-.23-5.93-.56-9.7h6.36l0,12.26c0,5.79-.48,11.74-7.61,11.74C123.67,105.22,121.59,102.7,121.1,99.75Zm7.61-22.21c0-1.23.84-2.36,3.61-2.36s3.59,1.13,3.59,2.36-.84,2.36-3.59,2.36S128.71,78.77,128.71,77.54Z"/><path d="M146,99.22c-6.17,0-8.93-4.53-8.93-9,0-5.43,3.5-8.93,8.93-8.93S155,84.77,155,90.2C155,94.69,152.21,99.22,146,99.22Zm0-12.72c-.91,0-1.48,1.87-1.48,3.61,0,2.12.66,3.85,1.48,3.85s1.5-1.8,1.5-3.85S146.84,86.5,146,86.5Z"/><path class="cls-3" d="M137.11,89.12c0-4.36,2.57-8.15,8.12-8.15s8.11,3.79,8.11,8.15-2.62,8.25-8.11,8.25S137.11,93.37,137.11,89.12ZM147.54,89c0-2-.74-4.38-2.31-4.38S142.94,87,142.94,89s.66,4.63,2.29,4.63S147.54,91.17,147.54,89Z"/><line class="cls-1" x1="15.19" y1="83.16" x2="14.97" y2="83.16"/><path class="cls-4" d="M32.38,102.19h81.34c2.42,0,4.38,4,4.38,8.83H38.45c-3.35,0-6.07-4-6.07-8.83Z"/><path class="cls-3" d="M40.53,108.94l-.13-.89h-.82l-.12.89h-.67l.74-4.54h1l.74,4.54Zm-.86-1.51h.64L40,105.14Z"/><path class="cls-3" d="M42.92,107.86v-.26h.67v.31c0,.29.12.44.37.44s.38-.15.38-.45a.88.88,0,0,0-.14-.49,2.22,2.22,0,0,0-.49-.53,2.89,2.89,0,0,1-.62-.71,1.38,1.38,0,0,1-.17-.71A1,1,0,0,1,44,104.33c.68,0,1,.41,1,1.14v.19h-.68v-.23c0-.3-.11-.45-.35-.45s-.37.14-.37.43a.83.83,0,0,0,.14.46,3.05,3.05,0,0,0,.49.52,2.66,2.66,0,0,1,.62.71,1.6,1.6,0,0,1,.17.75c0,.74-.37,1.15-1.07,1.15S42.92,108.59,42.92,107.86Z"/><path class="cls-3" d="M48.44,108.94l-.12-.89h-.83l-.12.89h-.66l.74-4.54h1l.74,4.54Zm-.86-1.51h.65l-.33-2.29Z"/><path class="cls-3" d="M51,108.94V104.4h1.09c.71,0,1.07.37,1.07,1.12v2.29c0,.75-.36,1.13-1.07,1.13Zm.72-.65h.36c.24,0,.36-.15.36-.44v-2.36c0-.3-.12-.44-.36-.44h-.36Z"/><path class="cls-3" d="M55.09,108.94V104.4H57v.65H55.8v1.19h1v.65h-1v1.4H57v.65Z"/><path class="cls-3" d="M58.9,108.94V104.4H60c.73,0,1,.33,1,1v.28c0,.47-.15.77-.46.89v0c.32.09.47.42.47,1v.79a1.58,1.58,0,0,0,.08.56h-.73a2,2,0,0,1-.06-.56v-.83c0-.42-.12-.56-.45-.56h-.25v2Zm.71-2.6h.26c.29,0,.43-.13.43-.48v-.35c0-.31-.12-.46-.36-.46h-.33Z"/><path class="cls-3" d="M63,105.47a1.08,1.08,0,1,1,2.16,0v2.39a1.08,1.08,0,1,1-2.16,0Zm1.45,0c0-.3-.13-.45-.37-.45s-.37.15-.37.45v2.47c0,.3.12.45.37.45s.37-.15.37-.45Z"/><path class="cls-3" d="M69.59,108.94V104.4h1.06c.73,0,1.06.33,1.06,1v.28c0,.47-.16.77-.47.89v0c.32.09.48.42.48,1v.79a1.62,1.62,0,0,0,.07.56h-.72a1.66,1.66,0,0,1-.07-.56v-.83c0-.42-.11-.56-.45-.56h-.24v2Zm.72-2.6h.26c.28,0,.43-.13.43-.48v-.35c0-.31-.13-.46-.37-.46h-.32Z"/><path class="cls-3" d="M73.69,108.94V104.4h2v.65H74.41v1.19h1v.65h-1v1.4h1.23v.65Z"/><path class="cls-3" d="M77.39,107.86v-.26h.68v.31c0,.29.12.44.37.44s.37-.15.37-.45a.88.88,0,0,0-.13-.49,2.46,2.46,0,0,0-.49-.53,2.89,2.89,0,0,1-.62-.71,1.39,1.39,0,0,1-.18-.71,1,1,0,0,1,1.07-1.13c.68,0,1,.41,1,1.14v.19h-.67v-.23q0-.45-.36-.45c-.24,0-.36.14-.36.43a.76.76,0,0,0,.14.46,3.05,3.05,0,0,0,.49.52,2.6,2.6,0,0,1,.61.71,1.49,1.49,0,0,1,.18.75A1,1,0,0,1,78.44,109C77.75,109,77.39,108.59,77.39,107.86Z"/><path class="cls-3" d="M82,108.94v-3.89h-.75v-.65h2.21v.65h-.75v3.89Z"/><path class="cls-3" d="M86.49,108.94l-.13-.89h-.82l-.12.89h-.66l.74-4.54h1l.74,4.54Zm-.86-1.51h.64L86,105.14Z"/><path class="cls-3" d="M89,104.4h.72v3.51c0,.29.12.44.36.44s.36-.15.36-.44V104.4h.69v3.46c0,.73-.37,1.14-1.06,1.14A1,1,0,0,1,89,107.86Z"/><path class="cls-3" d="M93.1,108.94V104.4h1.06c.73,0,1,.33,1,1v.28c0,.47-.15.77-.46.89v0c.31.09.47.42.47,1v.79a1.38,1.38,0,0,0,.08.56h-.73a1.66,1.66,0,0,1-.07-.56v-.83c0-.42-.11-.56-.44-.56h-.25v2Zm.71-2.6h.26c.29,0,.43-.13.43-.48v-.35c0-.31-.13-.46-.36-.46h-.33Z"/><path class="cls-3" d="M98.74,108.94l-.12-.89H97.8l-.13.89H97l.74-4.54h1l.74,4.54Zm-.85-1.51h.64l-.32-2.29Z"/><path class="cls-3" d="M101.28,108.94V104.4h.88l.72,2.71V104.4h.64v4.54h-.72l-.89-3.32v3.32Z"/><path class="cls-3" d="M106.09,108.94v-3.89h-.75v-.65h2.21v.65h-.75v3.89Z"/><path class="cls-3" d="M109.37,108.94V104.4h1.95v.65h-1.23v1.19h1v.65h-1v1.4h1.23v.65Z"/></g></g></svg>