<svg xmlns="http://www.w3.org/2000/svg" xmlns:xlink="http://www.w3.org/1999/xlink" viewBox="0 0 186.87 182.5"><defs><style>.cls-1{fill:none;}.cls-2{fill:#ce0505;}.cls-3{fill:#ffda00;}.cls-4{fill:#fff;}.cls-5{clip-path:url(#clip-path);}.cls-6{fill:#f45700;}.cls-7{fill:#cc0606;}</style><clipPath id="clip-path"><circle class="cls-1" cx="93.43" cy="93.01" r="85.8"/></clipPath></defs><g id="Capa_2" data-name="Capa 2"><g id="Capa_1-2" data-name="Capa 1"><ellipse class="cls-2" cx="93.43" cy="91.25" rx="93.43" ry="91.25"/><circle class="cls-3" cx="93.43" cy="93.01" r="85.8"/><path class="cls-4" d="M126.73,160.65l3.87,1.45,2.24,3.24,1,3.4A58,58,0,0,1,127,172l.14-9.44Z"/><g class="cls-5"><path class="cls-4" d="M25.52,145.44s36.54,51.78,98.68,30l1.76-3.79,1.22-7.6-.83-4.26-.45-.51-3,2.15s-.4.74-.7.81-2,.89-2,.89l-1.48,1.66-2,.75-2,1.34-2,.6-2.46-1.38-1-1.31L108.13,162l-.33-2.89.27-2.83.27-3.49s.13-2.36.2-2.56.66-2.62.66-2.62v-2.76l-.66-1.68-2.43-6.39-2.57-5.44-3.34-4.24-2.06-2.28-5.61-7.1-4.34-3.44a124.38,124.38,0,0,0-13.51-5.53L73.42,104l1.35-3.84,2.9-1.81,4.66-1.62L87.26,98l5.94,2.69s.75,1,3-.86a30.12,30.12,0,0,1,6.48-3.58l5.34-1,1.54-.69.89-3.11L110,87.79l-1.24-2.49-.68-.47H106l-4.62-.74L100,82l-.31-2.26-.85-2.11L97.8,75.08l-1.55-6.85L94.46,64.8,94,63.91s-3.67-4.51-10.49-1.74-8.71,4.58-8.71,4.58l-6.55,5.78-4.26,5L58,88.13l-2.23,5.24-2.09,5.52-.3,2.68-.21,1.25-.91,3.09-.3,2.36,0,2-1.08,3.31-.4,2.08-.31,2.89-.7,3.72L49,124.57l-.63,2.82-.46,1.72v3.83l-2.25.5-6,2.22-4.15,2.22-5.3,1.31-2.81,3.56-1.87,2"/><path class="cls-2" d="M41.3,66.89v7.25l4.23,8.5,3.74,4.74,4.56,4.09,1.67.42,4.72-7.72L65,76.39,72.25,69,85,62.43s7.6-1.44,9.88,2.15,4.15,16,4.15,16l5.44,4.24,8.86-2.19L122.11,77l9.43-11.45,3-13.92L132.35,40l-5.58-9.18-6.18-5.65-8.3-4.34-9.69-1.91-8.85.6L86.45,22l-6.38,4.34L74.4,31.79l-4.16,6.15-2.93-.1H60.42L55.5,40.66,53,44.13l.31,5,.1,2.68.4.9.16.66-.16.65.86,2-.1,1.16.26.5.49,1,.42,1.21L56.57,62l.3,1.82.61,1.31,0,1.11.72,1.41L58.9,69l-.34,1-.07,1.21-.81.53-.06,1.08-2.12-.34-3.42-1.14L47.35,69l-4-2.21Z"/><path d="M49.58,132s-.81-58.69,38.29-70.59c0,0-36.27.3-40.52,70.59Z"/><path d="M72.78,142.12s-1.62-8.64-6.59-9.55-28.51.36-40.67,12.87l-1.66-2.06s17.61-14.37,41.62-13C65.48,130.42,73.49,131,72.78,142.12Z"/><path d="M48.34,156.64s19.81,3.09,26,20.57l2.84.81S71.62,158.39,48.34,156.64Z"/><path d="M71.06,153.14s-4.77,7-10.29,6.62l3,1.6S66.13,162.62,71.06,153.14Z"/><path d="M55.5,91.3S41.41,84.43,42.62,67.89l-2.16-1.61A25.8,25.8,0,0,0,55.05,92.77"/><path class="cls-6" d="M90.12,98.72s3.09,3.59,5.72,1.43,8.47-4.22,8.47-4.22L114,94.31l9,1.62,6.76,4.91,1.89,5.31v4.43l-3.78-1.06-8-2.32-1.89,4.42-4,4.81-4.55,4.47-3.58,2H102.1l-6.36-2.53-4.64-3.17-2.91-2.94a32,32,0,0,0-9.44-4c-4.52-.88-4.65-3.67-4.65-3.67v-4l3.06-3.94,5.58-1.06L89,98.81"/><path d="M68.83,41.27s12-25.22,37-21C128,24,134.07,44.09,133.53,52.56S129.48,73.4,110,83.76l.55,1.07s25.52-9.45,25.79-32.76-24-37.63-41.5-34.35C94.86,17.72,74.6,21,68.83,41.27Z"/><path d="M70.24,37.27,69.57,39S59.3,35.42,55.49,42.26c-2.78,5,.94,17,3.12,23.06v0s.15.35.34.91c.48,1.48,1.23,4.33,0,6a.68.68,0,0,0-.12.22c-1.14,1.41-3.25,2.29-7.25.34-8.2-3.92-10.31-5.93-10.31-5.93l-.85-.63.82-2.1S55.71,74.7,57.63,71.79s-1.17-6.94-3.5-15.19S49.65,33.07,70.24,37.27Z"/><path d="M108.34,85.53c-.5,0-1,.06-1.48.06-.16,0-.32,0-.47,0-.6,0-1.17,0-1.67-.06a.46.46,0,0,1-.19,0c-7.54-.85-6.62-7-8-13.71-1.51-7.66-5.48-9.16-5.48-9.16,5.67,1.13,6.49,7.24,6.49,7.24.57,10.42,4,13.28,6.72,13.87a3.28,3.28,0,0,0,.75.13.69.69,0,0,0,.26,0,10.12,10.12,0,0,0,2.33,0l.63,1.5Z"/><polygon class="cls-7" points="93.41 119.27 98.54 125.28 103.86 132.03 108.03 140.2 108.89 147.16 108.34 152.81 107.85 159.62 109.2 165.21 112.18 167.17 117.76 166.08 121.32 162.59 125.9 158.91 127.33 160.77 131.71 162.56 134.57 159.87 138.12 154.42 139.49 149.48 141.06 143.22 141.06 138.08 136.55 130.57 130 127.59 123.18 125.02 116.29 123.86 110.67 123.46 106.22 122.94 102.1 122.94 98.97 122 93.41 119.27"/><path d="M75.21,92.09s12.16.11,16.31,5C91.52,97.14,88.68,88.87,75.21,92.09Z"/><path d="M80.48,91.36s2.93-13.28,15.29-7.13c0,0-11.55-9.41-17,7.24"/><path d="M88.59,82.69s6.11.49,1.28,12l1,1.28s5.39-9.83-.28-13.29"/><path d="M84.49,91.73s0-5.28,2.77-4.21-.45,5-.45,5"/><path d="M95.17,101.07s9.72-7.52,21.68-5.81,14.48,7.93,13.88,15.09l1.41,1.91a13.85,13.85,0,0,0-1.21-11c-3.24-5.24-8-8.87-19.76-7.66S95.17,101.07,95.17,101.07Z"/><path d="M130.73,110.35s-12.06-9.08-36.27,1.91c0,0,24.62-9.07,37.68,0"/><path d="M93.2,100.7s-12.46-5.52-16.54-.54c-3.31,4-2.91,8.21,2.09,10.09,0,0-9.52-1.28-5.47-8.94S88.4,96.73,93.2,100.7Z"/><path d="M120.22,107.56l-7.22.27L104.42,109l-8.17,3.36a53.83,53.83,0,0,1,21.88-4.14s-4,9-12,14.76l1.86-.46s4.76-.68,12.87-14.11Z"/><path d="M89.22,115.64S111,136,107.83,150.89c-3,14.39.57,20.41,9.62,16.44s21.75-20.64,2.44-34.49c0,0,21,21.38-6.59,34,0,0-6.79.47-3.69-15.87C112.3,136.79,100.47,125.11,89.22,115.64Z"/><path d="M109.47,163.35s1.3,5.48,8,1.3l.09-.05c6.8-4.28-1.5,2.63-1.5,2.63l-3.8.6-2-.8-1.11-2"/><path d="M106.11,123s31.34-2,35.39,13.72-8.73,25.82-8.73,25.82l-1.67-1.15S163.55,127.56,106.11,123Z"/><path d="M111.18,93.62l-2,.25c.7-5.36-.85-8.34-.85-8.34l-.06-.13-.63-1.5a7.51,7.51,0,0,0,1.13-.22,5.5,5.5,0,0,0,.85,1.41c0,.06.1.09.13.16C111.37,87.38,111.18,93.62,111.18,93.62Z"/><path d="M119.31,80.19a31,31,0,0,1-9.68,4.9l-1.35.31a13.06,13.06,0,0,1-1.42.19c-.16,0-.32,0-.47,0a8,8,0,0,1-1.67-.06.46.46,0,0,1-.19,0l-.22-1.76a6.54,6.54,0,0,0,.75.13.69.69,0,0,0,.26,0,10.12,10.12,0,0,0,2.33,0,7.51,7.51,0,0,0,1.13-.22c5.14-1.16,9.8-5.34,9.8-5.34Z"/><path d="M97.4,69s1.92,15.74,7.92,14.9l-1.78.9-1.89-1.15L100,82a5.24,5.24,0,0,1-.81-.85c-.14-.27-.61-1.62-.61-1.62L98,78"/><path d="M127.18,161.41s7.19-2.75,8.31,8.24l-2.64,1.41S134.47,163.06,127.18,161.41Z"/><path d="M125.68,160.67s.39,12-3.46,15.74l4-2s2-2.62.91-15.88"/><path d="M108.72,86.53s-3.49-.21-3.4,8.22l-1.55.52S102.83,86.1,108.72,86.53Z"/><path d="M105.59,90.89s2.34-.64,1.23,3.5l-2,.68.48-4.22"/><path d="M112.69,128s9.67,5.13,13,13.56l2.08-.48A34.52,34.52,0,0,0,112.69,128Z"/><path d="M106.11,123s-14.19.91-21.88-19l-1.49,1S90.17,124.64,106.11,123Z"/><path d="M111.12,118.53s-5.26,7-12.75,2.46l-.23,1s7.76,3.73,13.33-1.56"/><path d="M87.26,103.27s-5,.79-6.05,3.93C81.21,107.2,80.55,100.52,87.26,103.27Z"/><path d="M100.23,109.93s-10,4.66-13.64-.41L89,113.17s9,0,16.07-3.62"/><path d="M107.16,121.64s-5.44,3.09-13.91-3.9l.59,1.7,5,2.11,3.69,1.21,3.65.32,1-.25"/><path d="M89,113.17c4,1,11.92-2,11.92-2s7-3.16,13.74-2.93l-7.52,0-2.74.77-2.32.77"/><path d="M127.18,158.51s1.46,4.54,5.56,1l-1,3.05-1.74-.74-2.78-.41-1.28-2.15"/></g></g></g></svg>