<?xml version="1.0" encoding="utf-8"?>
<!-- Generator: Adobe Illustrator 26.0.1, SVG Export Plug-In . SVG Version: 6.00 Build 0)  -->
<svg version="1.1" id="Capa_1" xmlns="http://www.w3.org/2000/svg" xmlns:xlink="http://www.w3.org/1999/xlink" x="0px" y="0px"
	 viewBox="0 0 186.9 182.5" style="enable-background:new 0 0 186.9 182.5;" xml:space="preserve">
<style type="text/css">
	.st0{opacity:0.29;}
	.st1{opacity:0.28;}
	.st2{fill:#CE0505;}
	.st3{fill:#FFDA00;}
	.st4{fill:#FFFFFF;}
	.st5{clip-path:url(#SVGID_00000022544069498792761230000010437985597146901400_);}
	.st6{fill:#F45700;}
	.st7{fill:#CC0606;}
</style>
<g id="Capa_2_00000075871792647043631200000003937249950374654849_" class="st0">
	<g id="Capa_1-2">
		<g id="Capa_2-2" class="st1">
			<g id="Capa_1-2-2">
				<ellipse class="st2" cx="93.4" cy="91.2" rx="93.4" ry="91.2"/>
				<circle class="st3" cx="93.4" cy="93" r="85.8"/>
				<path class="st4" d="M126.7,160.6l3.9,1.4l2.2,3.2l1,3.4c-2.2,1.2-4.5,2.3-6.8,3.3l0.1-9.4L126.7,160.6z"/>
				<g>
					<defs>
						<circle id="SVGID_1_" cx="93.4" cy="93" r="85.8"/>
					</defs>
					<clipPath id="SVGID_00000149364350182827775810000009934840551419987356_">
						<use xlink:href="#SVGID_1_"  style="overflow:visible;"/>
					</clipPath>
					<g style="clip-path:url(#SVGID_00000149364350182827775810000009934840551419987356_);">
						<path class="st4" d="M25.5,145.4c0,0,36.5,51.8,98.7,30l1.8-3.8l1.2-7.6l-0.8-4.3l-0.4-0.5l-3,2.1c0,0-0.4,0.7-0.7,0.8
							s-2,0.9-2,0.9l-1.5,1.7l-2,0.8l-2,1.3l-2,0.6l-2.5-1.4l-1-1.3l-1.1-2.8l-0.3-2.9l0.3-2.8l0.3-3.5c0,0,0.1-2.4,0.2-2.6
							s0.7-2.6,0.7-2.6v-2.8l-0.7-1.7l-2.4-6.4l-2.6-5.4l-3.3-4.2l-2.1-2.3l-5.6-7.1l-4.3-3.4c-4.4-2.1-8.9-4-13.5-5.5l-1.3-4.8
							l1.3-3.8l2.9-1.8l4.7-1.6l4.9,1.3l5.9,2.7c0,0,0.8,1,3-0.9c2-1.5,4.2-2.7,6.5-3.6l5.3-1l1.5-0.7l0.9-3.1l-0.5-3.7l-1.2-2.5
							l-0.7-0.5H106l-4.6-0.7L100,82l-0.3-2.3l-0.8-2.1l-1-2.6l-1.6-6.8l-1.8-3.4L94,63.9c0,0-3.7-4.5-10.5-1.7s-8.7,4.6-8.7,4.6
							l-6.6,5.8l-4.3,5l-6,10.6l-2.2,5.2l-2.1,5.5l-0.3,2.7l-0.2,1.2l-0.9,3.1l-0.3,2.4v2l-1.1,3.3l-0.4,2.1l-0.3,2.9l-0.7,3.7
							l-0.5,2.3l-0.6,2.8l-0.5,1.7v3.8l-2.2,0.5l-6,2.2l-4.2,2.2l-5.3,1.3l-2.8,3.6l-1.9,2"/>
						<path class="st2" d="M41.3,66.9v7.2l4.2,8.5l3.7,4.7l4.6,4.1l1.7,0.4l4.7-7.7l4.8-7.8l7.2-7.4L85,62.4c0,0,7.6-1.4,9.9,2.2
							c2.3,3.6,4.2,16,4.2,16l5.4,4.2l8.9-2.2l8.8-5.6l9.4-11.4l3-13.9L132.4,40l-5.6-9.2l-6.2-5.6l-8.3-4.3l-9.7-1.9l-8.8,0.6
							L86.4,22l-6.4,4.3l-5.7,5.5l-4.2,6.2l-2.9-0.1h-6.9l-4.9,2.8L53,44.1l0.3,5l0.1,2.7l0.4,0.9l0.2,0.7L53.8,54l0.9,2l-0.1,1.2
							l0.3,0.5l0.5,1l0.4,1.2l0.8,2.1l0.3,1.8l0.6,1.3v1.1l0.7,1.4l0.7,1.3l-0.3,1l-0.1,1.2l-0.8,0.5l-0.1,1.1l-2.1-0.3l-3.4-1.1
							L47.3,69l-4-2.2L41.3,66.9z"/>
						<path d="M49.6,132c0,0-0.8-58.7,38.3-70.6c0,0-36.3,0.3-40.5,70.6H49.6z"/>
						<path d="M72.8,142.1c0,0-1.6-8.6-6.6-9.6s-28.5,0.4-40.7,12.9l-1.7-2.1c0,0,17.6-14.4,41.6-13C65.5,130.4,73.5,131,72.8,142.1
							z"/>
						<path d="M48.3,156.6c0,0,19.8,3.1,26,20.6l2.8,0.8C77.2,178,71.6,158.4,48.3,156.6z"/>
						<path d="M71.1,153.1c0,0-4.8,7-10.3,6.6l3,1.6C63.8,161.4,66.1,162.6,71.1,153.1z"/>
						<path d="M55.5,91.3c0,0-14.1-6.9-12.9-23.4l-2.2-1.6C39.1,77.3,45,88,55,92.8"/>
						<path class="st6" d="M90.1,98.7c0,0,3.1,3.6,5.7,1.4s8.5-4.2,8.5-4.2l9.7-1.6l9,1.6l6.8,4.9l1.9,5.3v4.4l-3.8-1.1l-8-2.3
							l-1.9,4.4l-4,4.8l-4.6,4.5l-3.6,2h-3.8l-6.4-2.5l-4.6-3.2l-2.9-2.9c-2.9-1.8-6.1-3.2-9.4-4c-4.5-0.9-4.7-3.7-4.7-3.7v-4
							l3.1-3.9l5.6-1.1l6.3,1.2"/>
						<path d="M68.8,41.3c0,0,12-25.2,37-21c22.2,3.7,28.2,23.8,27.7,32.3s-4.1,20.8-23.5,31.2l0.6,1.1c0,0,25.5-9.4,25.8-32.8
							s-24-37.6-41.5-34.3C94.9,17.7,74.6,21,68.8,41.3z"/>
						<path d="M70.2,37.3L69.6,39c0,0-10.3-3.6-14.1,3.3c-2.8,5,0.9,17,3.1,23.1l0,0c0,0,0.2,0.3,0.3,0.9c0.5,1.5,1.2,4.3,0,6
							c0,0.1-0.1,0.1-0.1,0.2c-1.1,1.4-3.2,2.3-7.2,0.3c-8.2-3.9-10.3-5.9-10.3-5.9l-0.8-0.6l0.8-2.1c0,0,14.5,10.6,16.4,7.7
							s-1.2-6.9-3.5-15.2S49.7,33.1,70.2,37.3z"/>
						<path d="M108.3,85.5c-0.5,0-1,0.1-1.5,0.1h-0.5c-0.6,0-1.1,0-1.7-0.1c-0.1,0-0.1,0-0.2,0c-7.5-0.8-6.6-7-8-13.7
							C95,64.2,91,62.7,91,62.7c5.7,1.1,6.5,7.2,6.5,7.2c0.6,10.4,4,13.3,6.7,13.9c0.2,0.1,0.5,0.1,0.8,0.1c0.1,0,0.2,0,0.3,0
							c0.8,0.1,1.6,0.1,2.3,0l0.6,1.5L108.3,85.5z"/>
						<polygon class="st7" points="93.4,119.3 98.5,125.3 103.9,132 108,140.2 108.9,147.2 108.3,152.8 107.8,159.6 109.2,165.2 
							112.2,167.2 117.8,166.1 121.3,162.6 125.9,158.9 127.3,160.8 131.7,162.6 134.6,159.9 138.1,154.4 139.5,149.5 141.1,143.2 
							141.1,138.1 136.6,130.6 130,127.6 123.2,125 116.3,123.9 110.7,123.5 106.2,122.9 102.1,122.9 99,122 						"/>
						<path d="M75.2,92.1c0,0,12.2,0.1,16.3,5C91.5,97.1,88.7,88.9,75.2,92.1z"/>
						<path d="M80.5,91.4c0,0,2.9-13.3,15.3-7.1c0,0-11.6-9.4-17,7.2"/>
						<path d="M88.6,82.7c0,0,6.1,0.5,1.3,12l1,1.3c0,0,5.4-9.8-0.3-13.3"/>
						<path d="M84.5,91.7c0,0,0-5.3,2.8-4.2s-0.4,5-0.4,5"/>
						<path d="M95.2,101.1c0,0,9.7-7.5,21.7-5.8s14.5,7.9,13.9,15.1l1.4,1.9c1.1-3.7,0.7-7.7-1.2-11c-3.2-5.2-8-8.9-19.8-7.7
							S95.2,101.1,95.2,101.1z"/>
						<path d="M130.7,110.3c0,0-12.1-9.1-36.3,1.9c0,0,24.6-9.1,37.7,0"/>
						<path d="M93.2,100.7c0,0-12.5-5.5-16.5-0.5c-3.3,4-2.9,8.2,2.1,10.1c0,0-9.5-1.3-5.5-8.9S88.4,96.7,93.2,100.7z"/>
						<path d="M120.2,107.6l-7.2,0.3l-8.6,1.2l-8.2,3.4c6.9-2.9,14.4-4.3,21.9-4.1c0,0-4,9-12,14.8l1.9-0.5c0,0,4.8-0.7,12.9-14.1
							L120.2,107.6z"/>
						<path d="M89.2,115.6c0,0,21.8,20.4,18.6,35.2c-3,14.4,0.6,20.4,9.6,16.4s21.8-20.6,2.4-34.5c0,0,21,21.4-6.6,34
							c0,0-6.8,0.5-3.7-15.9C112.3,136.8,100.5,125.1,89.2,115.6z"/>
						<path d="M109.5,163.4c0,0,1.3,5.5,8,1.3l0.1-0.1c6.8-4.3-1.5,2.6-1.5,2.6l-3.8,0.6l-2-0.8l-1.1-2"/>
						<path d="M106.1,123c0,0,31.3-2,35.4,13.7s-8.7,25.8-8.7,25.8l-1.7-1.1C131.1,161.4,163.6,127.6,106.1,123z"/>
						<path d="M111.2,93.6l-2,0.2c0.7-5.4-0.8-8.3-0.8-8.3l-0.1-0.1l-0.6-1.5c0.4,0,0.8-0.1,1.1-0.2c0.2,0.5,0.5,1,0.8,1.4
							c0,0.1,0.1,0.1,0.1,0.2C111.4,87.4,111.2,93.6,111.2,93.6z"/>
						<path d="M119.3,80.2c-2.9,2.2-6.2,3.8-9.7,4.9l-1.3,0.3c-0.5,0.1-0.9,0.2-1.4,0.2h-0.5c-0.6,0-1.1,0-1.7-0.1
							c-0.1,0-0.1,0-0.2,0l-0.2-1.8c0.2,0.1,0.5,0.1,0.8,0.1c0.1,0,0.2,0,0.3,0c0.8,0.1,1.6,0.1,2.3,0c0.4,0,0.8-0.1,1.1-0.2
							c5.1-1.2,9.8-5.3,9.8-5.3L119.3,80.2z"/>
						<path d="M97.4,69c0,0,1.9,15.7,7.9,14.9l-1.8,0.9l-1.9-1.2L100,82c-0.3-0.3-0.6-0.5-0.8-0.8c-0.1-0.3-0.6-1.6-0.6-1.6L98,78"
							/>
						<path d="M127.2,161.4c0,0,7.2-2.8,8.3,8.2l-2.6,1.4C132.9,171.1,134.5,163.1,127.2,161.4z"/>
						<path d="M125.7,160.7c0,0,0.4,12-3.5,15.7l4-2c0,0,2-2.6,0.9-15.9"/>
						<path d="M108.7,86.5c0,0-3.5-0.2-3.4,8.2l-1.6,0.5C103.8,95.3,102.8,86.1,108.7,86.5z"/>
						<path d="M105.6,90.9c0,0,2.3-0.6,1.2,3.5l-2,0.7l0.5-4.2"/>
						<path d="M112.7,128c0,0,9.7,5.1,13,13.6l2.1-0.5C124.1,135.3,118.9,130.8,112.7,128z"/>
						<path d="M106.1,123c0,0-14.2,0.9-21.9-19l-1.5,1C82.7,105,90.2,124.6,106.1,123z"/>
						<path d="M111.1,118.5c0,0-5.3,7-12.8,2.5l-0.2,1c0,0,7.8,3.7,13.3-1.6"/>
						<path d="M87.3,103.3c0,0-5,0.8-6.1,3.9C81.2,107.2,80.6,100.5,87.3,103.3z"/>
						<path d="M100.2,109.9c0,0-10,4.7-13.6-0.4l2.4,3.7c0,0,9,0,16.1-3.6"/>
						<path d="M107.2,121.6c0,0-5.4,3.1-13.9-3.9l0.6,1.7l5,2.1l3.7,1.2l3.7,0.3l1-0.2"/>
						<path d="M89,113.2c4,1,11.9-2,11.9-2s7-3.2,13.7-2.9h-7.5l-2.7,0.8l-2.3,0.8"/>
						<path d="M127.2,158.5c0,0,1.5,4.5,5.6,1l-1,3.1l-1.7-0.7l-2.8-0.4l-1.3-2.1"/>
					</g>
				</g>
			</g>
		</g>
	</g>
</g>
</svg>
