<svg xmlns="http://www.w3.org/2000/svg" viewBox="0 0 229.58 113"><defs><style>.cls-1{fill:#161616;}.cls-2,.cls-4{fill:#ce0505;}.cls-3{fill:#fff;}.cls-4{stroke:#ce0505;stroke-miterlimit:10;stroke-width:0.3px;}</style></defs><g id="Capa_2" data-name="Capa 2"><g id="Capa_1-2" data-name="Capa 1"><path class="cls-1" d="M125.26,97.76a2.46,2.46,0,0,1,.95-1,2.77,2.77,0,0,1,1.38-.34,2.7,2.7,0,0,1,1.63.5,2.44,2.44,0,0,1,.9,1.36h-1.43a1,1,0,0,0-.45-.5,1.21,1.21,0,0,0-.66-.18,1.24,1.24,0,0,0-1,.42,1.87,1.87,0,0,0,0,2.23,1.26,1.26,0,0,0,1,.41,1.2,1.2,0,0,0,.66-.17,1.12,1.12,0,0,0,.45-.51h1.43a2.4,2.4,0,0,1-.9,1.36,2.7,2.7,0,0,1-1.63.5,2.77,2.77,0,0,1-1.38-.35,2.44,2.44,0,0,1-.95-1,2.77,2.77,0,0,1-.34-1.4A2.82,2.82,0,0,1,125.26,97.76Z"/><path class="cls-1" d="M132.78,97.76a1.38,1.38,0,0,1,.75-.2v1.37h-.35a1.08,1.08,0,0,0-.73.21.93.93,0,0,0-.24.73v2h-1.3V97.6h1.3v.71A1.58,1.58,0,0,1,132.78,97.76Z"/><path class="cls-1" d="M134.14,98.56a1.84,1.84,0,0,1,.68-.75,1.69,1.69,0,0,1,.94-.27,1.67,1.67,0,0,1,.79.18,1.42,1.42,0,0,1,.52.48v-.6h1.29v4.23h-1.29v-.6a1.45,1.45,0,0,1-.53.48,1.77,1.77,0,0,1-1.72-.09,1.86,1.86,0,0,1-.68-.76,2.63,2.63,0,0,1-.24-1.15A2.6,2.6,0,0,1,134.14,98.56Zm2.66.39a.87.87,0,0,0-.66-.28.83.83,0,0,0-.65.28,1,1,0,0,0-.27.76,1.08,1.08,0,0,0,.27.77.83.83,0,0,0,.65.28.87.87,0,0,0,.66-.28,1.22,1.22,0,0,0,0-1.53Z"/><path class="cls-1" d="M139.35,101.69a.68.68,0,0,1,0-1,.76.76,0,0,1,.56-.21.77.77,0,0,1,.55.21.7.7,0,0,1,0,1,.81.81,0,0,1-.55.2A.8.8,0,0,1,139.35,101.69Z"/><path class="cls-1" d="M143,100.85v-1l2.39-3.43h1.45v3.35h.62v1.13h-.62v1h-1.3v-1Zm2.63-3-1.27,1.92h1.27Z"/><path class="cls-1" d="M151.58,97.27l-1.9,4.56h-1.33l1.92-4.42h-2.35v-1.1h3.66Z"/><path class="cls-1" d="M158.78,98.51l-.21,1h.91v1.17h-1.16l-.25,1.16h-1.21l.25-1.16h-1.26l-.25,1.16h-1.21l.25-1.16h-1.12V99.5h1.37l.21-1H154V97.34h1.34l.25-1.12h1.21l-.24,1.12h1.25l.25-1.12h1.21L159,97.34H160v1.17Zm-1.21,0h-1.26l-.21,1h1.26Z"/><path class="cls-1" d="M160.42,97.5V96.3h2.1v5.53h-1.35V97.5Z"/><path class="cls-1" d="M163.44,100.85v-1l2.39-3.43h1.45v3.35h.62v1.13h-.62v1H166v-1Zm2.63-3-1.27,1.92h1.27Z"/><path class="cls-1" d="M168.57,100.85v-1L171,96.37h1.45v3.35H173v1.13h-.62v1h-1.3v-1Zm2.63-3-1.27,1.92h1.27Z"/><path class="cls-1" d="M177.05,98.63v1.08h-3.33V98.63Z"/><path class="cls-1" d="M178.25,100.6c.5-.41.89-.74,1.17-1a4.62,4.62,0,0,0,.73-.82,1.55,1.55,0,0,0,.29-.84.79.79,0,0,0-.14-.49.62.62,0,0,0-.89,0,1.08,1.08,0,0,0-.16.61H178a2.1,2.1,0,0,1,.28-1.07,1.58,1.58,0,0,1,.69-.64,2.24,2.24,0,0,1,.95-.2,1.84,1.84,0,0,1,1.36.46,1.66,1.66,0,0,1,.46,1.2,2.38,2.38,0,0,1-.56,1.51,7.63,7.63,0,0,1-1.41,1.35h2v1H178v-1A1.48,1.48,0,0,0,178.25,100.6Z"/><path class="cls-1" d="M182.58,100.6c.49-.41.88-.74,1.17-1a4.55,4.55,0,0,0,.72-.82,1.49,1.49,0,0,0,.3-.84.74.74,0,0,0-.15-.49.54.54,0,0,0-.43-.17.54.54,0,0,0-.45.21,1,1,0,0,0-.16.61h-1.25a2.1,2.1,0,0,1,.28-1.07,1.61,1.61,0,0,1,.68-.64,2.32,2.32,0,0,1,1-.2,1.84,1.84,0,0,1,1.36.46,1.65,1.65,0,0,1,.45,1.2,2.36,2.36,0,0,1-.55,1.51,8.32,8.32,0,0,1-1.41,1.35h2.05v1h-3.81v-1A2.55,2.55,0,0,0,182.58,100.6Z"/><path class="cls-1" d="M163,107a1.33,1.33,0,0,1,.11,1.58,1.32,1.32,0,0,1-.58.51,2.2,2.2,0,0,1-.93.19H159.8V104h1.78a1.78,1.78,0,0,1,1.22.37,1.23,1.23,0,0,1,.42,1,1.15,1.15,0,0,1-.26.8,1.4,1.4,0,0,1-.68.43A1.27,1.27,0,0,1,163,107Zm-2.7-.68h1.23a1.21,1.21,0,0,0,.83-.25.88.88,0,0,0,.3-.7.83.83,0,0,0-.3-.69,1.23,1.23,0,0,0-.85-.25h-1.21Zm2.16,2.24a.93.93,0,0,0,.32-.75,1,1,0,0,0-.33-.77,1.38,1.38,0,0,0-.91-.28h-1.24v2.07h1.26A1.34,1.34,0,0,0,162.49,108.56Z"/><path class="cls-1" d="M165.08,109.08a2,2,0,0,1-.73-.75,2.24,2.24,0,0,1-.27-1.12,2.28,2.28,0,0,1,.27-1.13,1.84,1.84,0,0,1,.75-.74,2.15,2.15,0,0,1,1.05-.26,2.22,2.22,0,0,1,1.06.26,1.88,1.88,0,0,1,.74.74,2.28,2.28,0,0,1,.27,1.13,2.17,2.17,0,0,1-.28,1.12,1.93,1.93,0,0,1-.75.75,2.19,2.19,0,0,1-1.06.26A2.15,2.15,0,0,1,165.08,109.08Zm1.81-.39a1.46,1.46,0,0,0,.57-.56,1.87,1.87,0,0,0,.21-.92,1.84,1.84,0,0,0-.21-.92,1.37,1.37,0,0,0-.56-.56,1.53,1.53,0,0,0-.76-.19,1.56,1.56,0,0,0-.76.19,1.35,1.35,0,0,0-.55.56,1.84,1.84,0,0,0-.21.92,1.87,1.87,0,0,0,.21.92,1.35,1.35,0,0,0,.55.56,1.67,1.67,0,0,0,1.51,0Z"/><path class="cls-1" d="M171.94,105.35a1.58,1.58,0,0,1,.62.69v-.9h.53v4.24a2,2,0,0,1-.25,1,1.71,1.71,0,0,1-.68.68,2.08,2.08,0,0,1-1,.24,2.22,2.22,0,0,1-1.32-.38,1.6,1.6,0,0,1-.66-1h.52a1.28,1.28,0,0,0,.52.69,1.67,1.67,0,0,0,.94.25,1.42,1.42,0,0,0,.72-.17,1.2,1.2,0,0,0,.5-.5,1.62,1.62,0,0,0,.18-.79v-1a1.62,1.62,0,0,1-.63.7,1.84,1.84,0,0,1-1,.28,1.94,1.94,0,0,1-1-.27,1.88,1.88,0,0,1-.7-.75,2.54,2.54,0,0,1,0-2.24,1.79,1.79,0,0,1,.7-.74,2,2,0,0,1,1-.26A1.89,1.89,0,0,1,171.94,105.35Zm.41,1a1.49,1.49,0,0,0-.55-.59,1.64,1.64,0,0,0-1.57,0,1.44,1.44,0,0,0-.55.57,2.08,2.08,0,0,0,0,1.78,1.4,1.4,0,0,0,.55.58,1.64,1.64,0,0,0,1.57,0,1.46,1.46,0,0,0,.55-.58,1.82,1.82,0,0,0,.21-.88A1.76,1.76,0,0,0,172.35,106.33Z"/><path class="cls-1" d="M175.06,109.08a2,2,0,0,1-.73-.75,2.24,2.24,0,0,1-.27-1.12,2.28,2.28,0,0,1,.27-1.13,1.84,1.84,0,0,1,.75-.74,2.15,2.15,0,0,1,1-.26,2.22,2.22,0,0,1,1.06.26,1.88,1.88,0,0,1,.74.74,2.28,2.28,0,0,1,.27,1.13,2.17,2.17,0,0,1-.28,1.12,1.93,1.93,0,0,1-.75.75,2.19,2.19,0,0,1-1.06.26A2.15,2.15,0,0,1,175.06,109.08Zm1.81-.39a1.46,1.46,0,0,0,.57-.56,1.87,1.87,0,0,0,.21-.92,1.84,1.84,0,0,0-.21-.92,1.37,1.37,0,0,0-.56-.56,1.53,1.53,0,0,0-.76-.19,1.56,1.56,0,0,0-.76.19,1.29,1.29,0,0,0-.55.56,1.84,1.84,0,0,0-.21.92,1.87,1.87,0,0,0,.21.92,1.29,1.29,0,0,0,.55.56,1.67,1.67,0,0,0,1.51,0Z"/><path class="cls-1" d="M179.86,105.59v2.56a.73.73,0,0,0,.14.53.76.76,0,0,0,.51.14H181v.46h-.57a1.14,1.14,0,0,1-.83-.27,1.15,1.15,0,0,1-.27-.86v-2.56h-.58v-.45h.58v-1h.54v1H181v.45Z"/><path class="cls-1" d="M181.88,106.08a1.79,1.79,0,0,1,.7-.74,2,2,0,0,1,1-.26,1.89,1.89,0,0,1,1,.27,1.66,1.66,0,0,1,.62.7v-.91h.53v4.14h-.53v-.92a1.62,1.62,0,0,1-.63.7,1.85,1.85,0,0,1-1,.28,1.93,1.93,0,0,1-1-.27,1.88,1.88,0,0,1-.7-.75,2.54,2.54,0,0,1,0-2.24Zm3.15.25a1.49,1.49,0,0,0-.55-.59,1.62,1.62,0,0,0-.78-.2,1.6,1.6,0,0,0-.79.2,1.44,1.44,0,0,0-.55.57,2.08,2.08,0,0,0,0,1.78,1.4,1.4,0,0,0,.55.58,1.64,1.64,0,0,0,1.57,0,1.46,1.46,0,0,0,.55-.58,1.82,1.82,0,0,0,.21-.88A1.76,1.76,0,0,0,185,106.33Zm-.51-2.41-1.55.9v-.41l1.55-1Z"/><path class="cls-1" d="M14.52,97.09a2.53,2.53,0,0,1,1.7-.55,2.85,2.85,0,0,1,1.22.25,1.78,1.78,0,0,1,.76.67,1.75,1.75,0,0,1,.26,1,1.61,1.61,0,0,1-.31,1,1.55,1.55,0,0,1-.73.53v0a1.66,1.66,0,0,1,.85.6,1.7,1.7,0,0,1,.32,1.07,2,2,0,0,1-.27,1,1.83,1.83,0,0,1-.79.71,2.71,2.71,0,0,1-1.22.25,2.73,2.73,0,0,1-1.82-.56,2.13,2.13,0,0,1-.71-1.68h1.57a.89.89,0,0,0,.24.66.86.86,0,0,0,.66.24.75.75,0,0,0,.57-.21.78.78,0,0,0,.2-.57.76.76,0,0,0-.28-.66,1.71,1.71,0,0,0-.93-.2h-.3V99.37h.3a1.61,1.61,0,0,0,.78-.16.62.62,0,0,0,.3-.59.69.69,0,0,0-.19-.53.68.68,0,0,0-.52-.19.61.61,0,0,0-.53.22.93.93,0,0,0-.21.53H13.86A2.13,2.13,0,0,1,14.52,97.09Z"/><path class="cls-1" d="M19.36,98.21V96.7H22v6.92H20.3V98.21Z"/><path class="cls-1" d="M23.34,98.42a1.68,1.68,0,0,1,.27-.93,1.75,1.75,0,0,1,.8-.68,3.64,3.64,0,0,1,2.65,0,1.86,1.86,0,0,1,.8.68,1.76,1.76,0,0,1,.26.93,1.62,1.62,0,0,1-.24.89,1.68,1.68,0,0,1-.65.59,2,2,0,0,1,.79.68,1.88,1.88,0,0,1,.27,1,1.94,1.94,0,0,1-.34,1.16,2.11,2.11,0,0,1-.92.74,3.36,3.36,0,0,1-2.59,0,2.11,2.11,0,0,1-.92-.74,1.94,1.94,0,0,1-.34-1.16,1.89,1.89,0,0,1,.27-1,2,2,0,0,1,.78-.67A1.57,1.57,0,0,1,23.34,98.42ZM25,100.85a.81.81,0,0,0-.28.66.87.87,0,0,0,.27.66,1,1,0,0,0,.73.25,1,1,0,0,0,.71-.25.9.9,0,0,0,.26-.66.87.87,0,0,0-.27-.66,1,1,0,0,0-.7-.24A1,1,0,0,0,25,100.85Zm1.31-2.79a.84.84,0,0,0-.59-.21.81.81,0,0,0-.6.22.83.83,0,0,0-.22.6.79.79,0,0,0,.23.59.84.84,0,0,0,.59.21.77.77,0,0,0,.81-.81A.81.81,0,0,0,26.33,98.06Z"/><path class="cls-1" d="M31.28,102.39v-1.31l3-4.28h1.81V101h.77v1.41h-.77v1.23H34.46v-1.23Zm3.29-3.81L33,101h1.59Z"/><path class="cls-1" d="M40.8,98a.89.89,0,0,0-1.31.3,3.37,3.37,0,0,0-.25,1.48,1.46,1.46,0,0,1,.6-.52,1.92,1.92,0,0,1,.87-.19,2,2,0,0,1,1.49.59,2.27,2.27,0,0,1,.56,1.63,2.5,2.5,0,0,1-.28,1.22,2,2,0,0,1-.81.81,2.56,2.56,0,0,1-1.27.29,2.18,2.18,0,0,1-2-.91,5,5,0,0,1-.57-2.63,4.75,4.75,0,0,1,.6-2.67,2.16,2.16,0,0,1,1.93-.88,2.47,2.47,0,0,1,1.2.28,1.85,1.85,0,0,1,.73.74,2.38,2.38,0,0,1,.3,1h-1.5A1,1,0,0,0,40.8,98Zm-1.16,2.59a.87.87,0,0,0-.27.69,1,1,0,0,0,.25.71,1,1,0,0,0,.72.25A.89.89,0,0,0,41,102a1,1,0,0,0,.24-.69,1,1,0,0,0-.24-.7.89.89,0,0,0-.68-.25A1,1,0,0,0,39.64,100.63Z"/><path class="cls-1" d="M46.29,102.34a.72.72,0,0,0,.71-.45,3.62,3.62,0,0,0,.21-1.45,1.37,1.37,0,0,1-.57.46,1.87,1.87,0,0,1-.8.16,2.21,2.21,0,0,1-1.08-.25,1.78,1.78,0,0,1-.74-.75,2.49,2.49,0,0,1-.27-1.21A2.53,2.53,0,0,1,44,97.63a2.06,2.06,0,0,1,.83-.8,2.66,2.66,0,0,1,1.26-.29,2.14,2.14,0,0,1,2,.87,4.76,4.76,0,0,1,.56,2.57,7.66,7.66,0,0,1-.22,2,2.28,2.28,0,0,1-.75,1.22,2.23,2.23,0,0,1-1.43.42,2.49,2.49,0,0,1-1.23-.29,2,2,0,0,1-.78-.75,2.24,2.24,0,0,1-.3-1h1.49A.82.82,0,0,0,46.29,102.34Zm.55-2.8a.89.89,0,0,0,.24-.66.94.94,0,0,0-.25-.7.9.9,0,0,0-.66-.25.87.87,0,0,0-.66.26.92.92,0,0,0,.7,1.59A.85.85,0,0,0,46.84,99.54Z"/><path class="cls-1" d="M51.76,98.42a1.76,1.76,0,0,1,.26-.93,1.83,1.83,0,0,1,.81-.68,3.24,3.24,0,0,1,1.32-.25,3.17,3.17,0,0,1,1.32.25,1.75,1.75,0,0,1,.8.68,1.68,1.68,0,0,1,.27.93,1.62,1.62,0,0,1-.24.89,1.68,1.68,0,0,1-.65.59,1.93,1.93,0,0,1,.78.68,1.81,1.81,0,0,1,.28,1,1.94,1.94,0,0,1-.34,1.16,2.14,2.14,0,0,1-.93.74,3.13,3.13,0,0,1-1.29.26,3.2,3.2,0,0,1-1.29-.26,2.05,2.05,0,0,1-.92-.74,1.94,1.94,0,0,1-.34-1.16,1.89,1.89,0,0,1,.27-1,1.84,1.84,0,0,1,.78-.67A1.55,1.55,0,0,1,51.76,98.42Zm1.67,2.43a.84.84,0,0,0-.27.66.87.87,0,0,0,.27.66,1,1,0,0,0,.72.25,1,1,0,0,0,.72-.25.9.9,0,0,0,.26-.66.87.87,0,0,0-.27-.66,1,1,0,0,0-.71-.24A1.08,1.08,0,0,0,53.43,100.85Zm1.31-2.79a.92.92,0,0,0-1.18,0,.79.79,0,0,0-.22.6.75.75,0,0,0,.23.59.81.81,0,0,0,.58.21.8.8,0,0,0,.59-.22.78.78,0,0,0,.23-.59A.81.81,0,0,0,54.74,98.06Z"/><path class="cls-1" d="M58.37,97.09a2.49,2.49,0,0,1,1.69-.55,2.85,2.85,0,0,1,1.22.25,1.73,1.73,0,0,1,.76.67,1.76,1.76,0,0,1,.27,1,1.61,1.61,0,0,1-.32,1,1.55,1.55,0,0,1-.73.53v0a1.73,1.73,0,0,1,.86.6,1.76,1.76,0,0,1,.31,1.07,2,2,0,0,1-.27,1,1.83,1.83,0,0,1-.79.71,3.18,3.18,0,0,1-3-.31,2.13,2.13,0,0,1-.71-1.68h1.57a1,1,0,0,0,.24.66.86.86,0,0,0,.66.24.74.74,0,0,0,.57-.21.79.79,0,0,0,.21-.57.77.77,0,0,0-.29-.66,1.71,1.71,0,0,0-.93-.2h-.3V99.37h.3a1.63,1.63,0,0,0,.79-.16.63.63,0,0,0,.29-.59.69.69,0,0,0-.19-.53A.68.68,0,0,0,60,97.9a.61.61,0,0,0-.53.22.93.93,0,0,0-.21.53H57.7A2.1,2.1,0,0,1,58.37,97.09Z"/><path class="cls-1" d="M63.41,102.39v-1.31l3-4.28h1.8V101H69v1.41h-.78v1.23H66.59v-1.23Zm3.3-3.81L65.12,101h1.59Z"/><path class="cls-1" d="M69.62,98.21V96.7h2.62v6.92H70.55V98.21Z"/><path class="cls-1" d="M15.51,107.75a1.86,1.86,0,0,0,.58-1.24,1,1,0,0,0-.2-.65.8.8,0,0,0-.65-.24.86.86,0,0,0-.69.28,1.2,1.2,0,0,0-.27.73h-.39a1.45,1.45,0,0,1,.4-1,1.29,1.29,0,0,1,1-.36,1.31,1.31,0,0,1,.91.32,1.16,1.16,0,0,1,.35.9,2,2,0,0,1-.59,1.36,9.14,9.14,0,0,1-1.43,1.29h2.15v.34H13.85v-.29A12,12,0,0,0,15.51,107.75Z"/><path class="cls-1" d="M19.75,105.66l-1.62,3.85h-.41l1.63-3.81H17v-.35h2.72Z"/><path class="cls-1" d="M20.17,108.52v-.31l2.12-2.84h.48v2.8h.62v.35h-.62v1h-.4v-1Zm2.22-2.71-1.75,2.36h1.75Z"/><path class="cls-1" d="M24.22,105.84a1.15,1.15,0,0,1,1.1-.55,1.16,1.16,0,0,1,1.11.55,3.27,3.27,0,0,1,.31,1.55,3.33,3.33,0,0,1-.31,1.57,1.17,1.17,0,0,1-1.11.56,1.14,1.14,0,0,1-1.1-.56,3.33,3.33,0,0,1-.31-1.57A3.27,3.27,0,0,1,24.22,105.84Zm2,.64a1.14,1.14,0,0,0-.3-.6.85.85,0,0,0-.64-.23.84.84,0,0,0-.63.23,1.14,1.14,0,0,0-.3.6,4.58,4.58,0,0,0-.08.91,4.8,4.8,0,0,0,.08.93,1.14,1.14,0,0,0,.3.6.84.84,0,0,0,.63.23.85.85,0,0,0,.64-.23,1.14,1.14,0,0,0,.3-.6,4.89,4.89,0,0,0,.07-.93A4.67,4.67,0,0,0,26.26,106.48Z"/><path class="cls-1" d="M27.8,105.84a1.14,1.14,0,0,1,1.1-.55,1.16,1.16,0,0,1,1.11.55,3.28,3.28,0,0,1,.3,1.55A3.34,3.34,0,0,1,30,109a1.17,1.17,0,0,1-1.11.56,1.14,1.14,0,0,1-1.1-.56,3.21,3.21,0,0,1-.31-1.57A3.15,3.15,0,0,1,27.8,105.84Zm2,.64a1.14,1.14,0,0,0-.3-.6,1,1,0,0,0-1.28,0,1.21,1.21,0,0,0-.29.6,4.58,4.58,0,0,0-.08.91,4.8,4.8,0,0,0,.08.93,1.21,1.21,0,0,0,.29.6,1,1,0,0,0,1.28,0,1.14,1.14,0,0,0,.3-.6,4.89,4.89,0,0,0,.07-.93A4.67,4.67,0,0,0,29.84,106.48Z"/><path class="cls-1" d="M31.33,107a.94.94,0,0,1-.19-.6,1,1,0,0,1,.63-.95,1.64,1.64,0,0,1,.73-.14,1.69,1.69,0,0,1,.74.14,1,1,0,0,1,.47.39,1,1,0,0,1,.16.56,1,1,0,0,1-.19.6,1.1,1.1,0,0,1-.55.37,1.08,1.08,0,0,1,.62.38,1,1,0,0,1,.23.67,1.08,1.08,0,0,1-.19.65,1.14,1.14,0,0,1-.51.43,2.08,2.08,0,0,1-1.55,0,1.11,1.11,0,0,1-.52-.43,1.15,1.15,0,0,1-.18-.65,1,1,0,0,1,.22-.67,1.07,1.07,0,0,1,.63-.38A1.06,1.06,0,0,1,31.33,107Zm.39.76a.75.75,0,0,0-.3.65.82.82,0,0,0,.29.66,1.42,1.42,0,0,0,1.58,0,.82.82,0,0,0,.29-.66.74.74,0,0,0-.3-.64,1.26,1.26,0,0,0-.78-.22A1.38,1.38,0,0,0,31.72,107.74Zm1.49-1.91a1.09,1.09,0,0,0-.71-.21,1.11,1.11,0,0,0-.71.21.72.72,0,0,0-.26.59.7.7,0,0,0,.27.58,1.1,1.1,0,0,0,.7.21,1.13,1.13,0,0,0,.71-.21.72.72,0,0,0,.26-.58A.7.7,0,0,0,33.21,105.83Z"/><path class="cls-1" d="M35.08,105.57a1.49,1.49,0,0,1,1-.3,1.41,1.41,0,0,1,.67.14,1,1,0,0,1,.42.38,1.09,1.09,0,0,1,.14.54,1,1,0,0,1-.21.63,1,1,0,0,1-.61.34v0a1.19,1.19,0,0,1,.65.36,1.16,1.16,0,0,1-.09,1.54,1.34,1.34,0,0,1-1,.32,1.54,1.54,0,0,1-1-.32,1.27,1.27,0,0,1-.45-.9H35a.93.93,0,0,0,.33.63,1,1,0,0,0,.72.24.9.9,0,0,0,.67-.23.78.78,0,0,0,.24-.59c0-.59-.43-.88-1.27-.88h-.13v-.35h.13c.79,0,1.19-.25,1.19-.77a.71.71,0,0,0-.23-.54.85.85,0,0,0-.62-.21,1,1,0,0,0-.66.21.84.84,0,0,0-.3.58h-.4A1.19,1.19,0,0,1,35.08,105.57Z"/><path class="cls-1" d="M41.74,107.19v.34H39.48v-.34Z"/><path class="cls-1" d="M44.68,105.57a1.44,1.44,0,0,1,1-.3,1.38,1.38,0,0,1,.67.14.92.92,0,0,1,.42.38,1,1,0,0,1,.14.54,1,1,0,0,1-.21.63,1,1,0,0,1-.61.34v0a1.26,1.26,0,0,1,.66.36,1.19,1.19,0,0,1-.09,1.54,1.38,1.38,0,0,1-1,.32,1.51,1.51,0,0,1-1-.32,1.27,1.27,0,0,1-.45-.9h.39a1,1,0,0,0,.33.63,1,1,0,0,0,.72.24.92.92,0,0,0,.68-.23.81.81,0,0,0,.23-.59c0-.59-.42-.88-1.27-.88h-.13v-.35h.13c.79,0,1.19-.25,1.19-.77a.7.7,0,0,0-.22-.54.89.89,0,0,0-.63-.21,1,1,0,0,0-.65.21.85.85,0,0,0-.31.58h-.39A1.15,1.15,0,0,1,44.68,105.57Z"/><path class="cls-1" d="M47.49,105.71v-.37h1v4.17h-.41v-3.8Z"/><path class="cls-1" d="M49.18,105.71v-.37h1v4.17h-.41v-3.8Z"/><path class="cls-1" d="M51.33,107a1,1,0,0,1-.19-.6,1,1,0,0,1,.16-.56,1.07,1.07,0,0,1,.47-.39,1.69,1.69,0,0,1,.74-.14,1.72,1.72,0,0,1,.74.14,1,1,0,0,1,.46.39,1,1,0,0,1,.16.56,1,1,0,0,1-.19.6,1,1,0,0,1-.54.37,1.08,1.08,0,0,1,.62.38,1,1,0,0,1,.22.67,1.15,1.15,0,0,1-.18.65,1.11,1.11,0,0,1-.52.43,1.86,1.86,0,0,1-.77.15,1.9,1.9,0,0,1-.78-.15,1.14,1.14,0,0,1-.51-.43,1.08,1.08,0,0,1-.19-.65,1,1,0,0,1,.23-.67,1.08,1.08,0,0,1,.62-.38A1.1,1.1,0,0,1,51.33,107Zm.4.76a.75.75,0,0,0-.3.65.82.82,0,0,0,.29.66,1.2,1.2,0,0,0,.79.24,1.17,1.17,0,0,0,.78-.24.79.79,0,0,0,.29-.66.74.74,0,0,0-.3-.64,1.23,1.23,0,0,0-.77-.22A1.33,1.33,0,0,0,51.73,107.74Zm1.49-1.91a1.11,1.11,0,0,0-.71-.21,1.09,1.09,0,0,0-.71.21.72.72,0,0,0-.26.59.7.7,0,0,0,.27.58,1.08,1.08,0,0,0,.7.21,1.1,1.1,0,0,0,.7-.21.7.7,0,0,0,.27-.58A.73.73,0,0,0,53.22,105.83Z"/><path class="cls-1" d="M54.5,105.71v-.37h1v4.17h-.41v-3.8Z"/><path class="cls-1" d="M56.7,105.84a1.39,1.39,0,0,1,2.21,0,3.27,3.27,0,0,1,.31,1.55,3.33,3.33,0,0,1-.31,1.57,1.16,1.16,0,0,1-1.11.56,1.14,1.14,0,0,1-1.1-.56,3.33,3.33,0,0,1-.31-1.57A3.27,3.27,0,0,1,56.7,105.84Zm2,.64a1.14,1.14,0,0,0-.3-.6.85.85,0,0,0-.64-.23.84.84,0,0,0-.63.23,1.14,1.14,0,0,0-.3.6,4.58,4.58,0,0,0-.08.91,4.8,4.8,0,0,0,.08.93,1.14,1.14,0,0,0,.3.6.84.84,0,0,0,.63.23.85.85,0,0,0,.64-.23,1.14,1.14,0,0,0,.3-.6,4.8,4.8,0,0,0,.08-.93A4.58,4.58,0,0,0,58.74,106.48Z"/><path class="cls-1" d="M61.54,107.75a1.88,1.88,0,0,0,.59-1.24,1,1,0,0,0-.2-.65.83.83,0,0,0-.66-.24.84.84,0,0,0-.68.28,1.2,1.2,0,0,0-.27.73h-.4a1.5,1.5,0,0,1,.4-1,1.44,1.44,0,0,1,1.86,0,1.13,1.13,0,0,1,.35.9,2,2,0,0,1-.58,1.36,9.23,9.23,0,0,1-1.44,1.29h2.15v.34H59.89v-.29A12.42,12.42,0,0,0,61.54,107.75Z"/><path class="cls-1" d="M64.86,107.75a1.88,1.88,0,0,0,.59-1.24,1,1,0,0,0-.2-.65.82.82,0,0,0-.66-.24.84.84,0,0,0-.68.28,1.2,1.2,0,0,0-.27.73h-.39a1.45,1.45,0,0,1,.39-1,1.31,1.31,0,0,1,1-.36,1.34,1.34,0,0,1,.92.32,1.15,1.15,0,0,1,.34.9,2,2,0,0,1-.58,1.36,9.23,9.23,0,0,1-1.44,1.29H66v.34H63.21v-.29A12.42,12.42,0,0,0,64.86,107.75Z"/><path class="cls-1" d="M67,105.57a1.44,1.44,0,0,1,.95-.3,1.41,1.41,0,0,1,.67.14.92.92,0,0,1,.42.38,1,1,0,0,1,.14.54A1,1,0,0,1,69,107a1,1,0,0,1-.61.34v0a1.19,1.19,0,0,1,.65.36,1,1,0,0,1,.25.72,1.05,1.05,0,0,1-.34.82,1.34,1.34,0,0,1-1,.32,1.54,1.54,0,0,1-1-.32,1.26,1.26,0,0,1-.44-.9h.39a1,1,0,0,0,.33.63,1,1,0,0,0,.72.24.88.88,0,0,0,.67-.23.78.78,0,0,0,.24-.59c0-.59-.42-.88-1.27-.88h-.13v-.35h.13c.79,0,1.19-.25,1.19-.77a.74.74,0,0,0-.22-.54.89.89,0,0,0-.63-.21,1,1,0,0,0-.65.21.82.82,0,0,0-.31.58H66.6A1.12,1.12,0,0,1,67,105.57Z"/><path class="cls-1" d="M70.84,109a.92.92,0,0,0,.62.2.88.88,0,0,0,.81-.42,2.64,2.64,0,0,0,.24-1.42.89.89,0,0,1-.42.5,1.28,1.28,0,0,1-.71.19,1.33,1.33,0,0,1-1-.37,1.38,1.38,0,0,1-.37-1,1.5,1.5,0,0,1,.16-.7,1.12,1.12,0,0,1,.45-.49,1.5,1.5,0,0,1,.76-.18,1.23,1.23,0,0,1,1.15.54,3,3,0,0,1,.32,1.54,3.22,3.22,0,0,1-.32,1.63,1.18,1.18,0,0,1-1.1.55,1.22,1.22,0,0,1-.9-.32,1.29,1.29,0,0,1-.38-.81h.38A1,1,0,0,0,70.84,109ZM72,107.57a.94.94,0,0,0,.51-.87,1.14,1.14,0,0,0-.27-.78,1,1,0,0,0-.78-.31.94.94,0,0,0-.72.28,1,1,0,0,0-.27.74,1.06,1.06,0,0,0,.27.77,1,1,0,0,0,.76.28A1.18,1.18,0,0,0,72,107.57Z"/><rect class="cls-2" y="93.12" width="9.57" height="19.43" rx="4.78"/><path class="cls-3" d="M8.26,103.08v.14s0,0,0,0H7.78v-.21l-.07-.56c0-.08,0-.12,0-.19a1.61,1.61,0,0,0-.12-.33v0l-.19-.35-.14-.21,0-.05a3.29,3.29,0,0,0-.8-.78,1.18,1.18,0,0,0-.19-.11,1.7,1.7,0,0,0-.35-.19h0a3.86,3.86,0,0,0-.54-.19,3.37,3.37,0,0,0-.71-.09h0v-.4c0-.07,0-.07.07-.07H5a.06.06,0,0,1,.09,0,4.56,4.56,0,0,1,.75.18,4,4,0,0,1,1.72,1.27h0l.07.1a3,3,0,0,1,.19.3,3.32,3.32,0,0,1,.33.78.17.17,0,0,1,0,.14,5.07,5.07,0,0,1,.09.54l0,.29Z"/><path class="cls-3" d="M.64,101.06V101a.33.33,0,0,1,0-.17.45.45,0,0,1,.1-.14l.44-.45.17-.14A.67.67,0,0,1,1.6,100l.14,0H2l.19,0a1,1,0,0,1,.59.54,1.11,1.11,0,0,1,.09.31c.07.23.14.49.19.73a1,1,0,0,1-.09.68,2.31,2.31,0,0,0-.14.19l-.26.23a.12.12,0,0,0,0,.15l.1.28a4,4,0,0,0,.56,1,1.74,1.74,0,0,0,.12.14,3.7,3.7,0,0,0,1,.76l.36.16c.09.05.21.07.3.12a.09.09,0,0,0,.1,0l.26-.26a.89.89,0,0,1,.7-.28,1.3,1.3,0,0,1,.33.07h0L7,105h.07a.92.92,0,0,1,.61.68.58.58,0,0,1,0,.14v.37a1,1,0,0,1-.26.43L7.1,107a.31.31,0,0,1-.16.12.59.59,0,0,1-.26.07H6.26a1.83,1.83,0,0,1-.47,0c-.17,0-.33,0-.5-.1a5.73,5.73,0,0,1-.89-.28l-.09,0-.17-.07-.42-.21a4.18,4.18,0,0,1-.54-.35l-.45-.36-.45-.42-.35-.42-.09-.12s0,0-.05-.07-.24-.35-.36-.54l-.21-.4-.07-.14a4.24,4.24,0,0,1-.16-.43,5.18,5.18,0,0,1-.17-.56v-.14a.51.51,0,0,0,0-.24c-.05-.07,0-.09,0-.14s0-.28-.05-.42v-.57Z"/><path class="cls-3" d="M4.45,101.37v-.45s0,0,0,0h.36a.17.17,0,0,1,.14,0,2.64,2.64,0,0,1,.47.17,2.38,2.38,0,0,1,1.31,1.62h0a.07.07,0,0,1,0,.1v.32c0,.12,0,.1-.07.07H6.3v-.35a.45.45,0,0,0,0-.23,1.67,1.67,0,0,0-.5-.78,1.86,1.86,0,0,0-.75-.45.78.78,0,0,0-.21,0H4.52Z"/><path class="cls-3" d="M4.52,102.8s-.07,0-.07-.09v-.4a.94.94,0,0,1,.37.07s.07,0,.1,0,0,0,.07,0a1,1,0,0,1,.21.21l.12.19a.67.67,0,0,1,.07.31v.07H5c-.07,0-.07,0-.07-.07a.49.49,0,0,0-.36-.4l0,0Z"/><rect class="cls-2" x="189.56" y="93.15" width="9.77" height="19.85" rx="4.89"/><path class="cls-3" d="M196.22,100.05a2.26,2.26,0,0,0-1.2-.58,1.74,1.74,0,0,1-.39,0H194a2.24,2.24,0,0,0-.57.08,2.81,2.81,0,0,0-1.85,2.64,3.27,3.27,0,0,0,.38,1.59,8.18,8.18,0,0,0,1.9,2.54.72.72,0,0,0,.41.22h.22a.64.64,0,0,0,.31-.15c.24-.21.45-.43.67-.62a7.72,7.72,0,0,0,1.13-1.54,4.09,4.09,0,0,0,.6-1.9,2.77,2.77,0,0,0-1-2.28Zm-1.83,3.53a1.38,1.38,0,1,1,1.4-1.37,1.36,1.36,0,0,1-1.35,1.37Z"/><rect class="cls-2" x="0.15" y="50.47" width="81.32" height="15.29" rx="7.65"/><path class="cls-3" d="M1.07,14.07A78.81,78.81,0,0,0,1.07.16H4.72C6.56.16,8.19-.28,9.5,1.71c1.68,2.53.95,8.51,0,10.27-.88,1.57-2.59,2.24-4.74,2.09Zm3.65-2.41a1.82,1.82,0,0,0,1.87-1.2c.63-1.22.72-4.91.33-6.25a2,2,0,0,0-2.2-1.56Z"/><path class="cls-3" d="M11.19,8.94c0-2.8,1.48-5.24,4.66-5.24s4.67,2.44,4.67,5.24S19,14.25,15.85,14.25,11.19,11.68,11.19,8.94Zm6,0c0-1.29-.42-2.82-1.33-2.82S14.54,7.6,14.54,8.89s.38,3,1.31,3S17.18,10.26,17.18,8.89Z"/><path class="cls-3" d="M24.53,14.07H21A42.7,42.7,0,0,0,21,3.84h3.54v1a3.38,3.38,0,0,1,2.41-1.09c2.22,0,3.2,1.9,3.2,4.57v5.74H26.6a42.37,42.37,0,0,0,.28-5.33c0-1.7-.3-2.37-.93-2.37a1.68,1.68,0,0,0-1.42,1.52Z"/><path class="cls-3" d="M30.88,9.62c0-5.76,4-6.27,5.7-5.09V.16h3.54a78.81,78.81,0,0,0,0,13.91H36.58V12.54a2.74,2.74,0,0,1-2.35,1.7C32.58,14.24,30.88,12.73,30.88,9.62Zm5.7.19v-3C36.3,6,34.15,5.7,34.15,9.09c0,1.33.41,2.19,1.12,2.19A1.7,1.7,0,0,0,36.58,9.81Z"/><path class="cls-3" d="M40.81,9.24c0-3,1.63-5.6,4.52-5.6s4.12,1.93,4.12,3.51c0,2.55-2.38,3.61-5,3.34a1.24,1.24,0,0,0,1.21.95,2.17,2.17,0,0,0,1.81-.93l1.73,1.43a4.08,4.08,0,0,1-3.89,2.34C42.32,14.28,40.81,12,40.81,9.24Zm5.47-1.89c0-.6-.28-1-.78-1-.87,0-1.16,1.27-1.21,2.61A1.73,1.73,0,0,0,46.28,7.35Z"/><path class="cls-3" d="M58.11,14.07H54.47a78.47,78.47,0,0,0,0-13.88h3.64Z"/><path class="cls-3" d="M59,11.43c0-2.95,3.23-3.38,6-2.72l0-.29c.14-1.2.2-2.27-.57-2.27s-.94,1.2-1.09,1.93l-2.74-.47c0-1.28.1-3.85,3.34-3.85,2.8,0,4.46,1.53,4.2,4.26-.19,2.11-.64,3.58.35,3.58a1.58,1.58,0,0,0,.64-.13l.4,1.95a3.84,3.84,0,0,1-2.39.82,2,2,0,0,1-2-1.44,3.66,3.66,0,0,1-3.08,1.44A2.9,2.9,0,0,1,59,11.43Zm5.89-.5c0-.16,0-.32,0-.48-1.08-.29-2.86-.19-2.86.66,0,.41.35.61.9.61A2.76,2.76,0,0,0,64.84,10.93Z"/><path class="cls-3" d="M73.5,9.27C73.5,6.05,75,3.64,78,3.64c3.86,0,4.67,3.23,3.89,5.87l-3.16-.29c.27-1.14.44-2.86-.62-2.86C77.32,6.36,77,7.63,77,9.08c0,1.21.29,2.39,1.09,2.39s1.13-.79,1.19-1.25l3,.29a4.42,4.42,0,0,1-4.39,3.8C74.83,14.31,73.5,12.06,73.5,9.27Z"/><path class="cls-3" d="M82.71,11.43c0-2.95,3.23-3.38,6-2.72l0-.29c.14-1.2.2-2.27-.57-2.27s-.94,1.2-1.08,1.93l-2.75-.47c0-1.28.1-3.85,3.34-3.85,2.8,0,4.46,1.53,4.2,4.26-.19,2.11-.64,3.58.35,3.58a1.58,1.58,0,0,0,.64-.13l.4,1.95a3.84,3.84,0,0,1-2.38.82,2,2,0,0,1-2-1.44,3.65,3.65,0,0,1-3.08,1.44A2.89,2.89,0,0,1,82.71,11.43Zm5.89-.5a3.85,3.85,0,0,1,0-.48c-1.08-.29-2.86-.19-2.86.66,0,.41.35.61.9.61A2.8,2.8,0,0,0,88.6,10.93Z"/><path class="cls-3" d="M97.58,14.07H93.94a78.47,78.47,0,0,0,0-13.88h3.64Z"/><path class="cls-3" d="M98.71,1.49c0-.76.5-1.49,2.11-1.49s2.09.73,2.09,1.49S102.41,3,100.82,3,98.71,2.25,98.71,1.49Zm.2,12.58a64.7,64.7,0,0,0,0-10.23h3.78c-.16,3.09-.16,7.15,0,10.23Z"/><path class="cls-3" d="M103.52,9.62c0-5.76,4-6.27,5.7-5.09V.16h3.54a78.81,78.81,0,0,0,0,13.91h-3.54V12.54a2.75,2.75,0,0,1-2.35,1.7C105.22,14.24,103.52,12.73,103.52,9.62Zm5.7.19v-3c-.28-.83-2.43-1.08-2.43,2.31,0,1.33.41,2.19,1.11,2.19A1.69,1.69,0,0,0,109.22,9.81Z"/><path class="cls-3" d="M113.31,11.43c0-2.95,3.23-3.38,6-2.72l0-.29c.14-1.2.2-2.27-.57-2.27s-.94,1.2-1.08,1.93l-2.75-.47c0-1.28.1-3.85,3.35-3.85,2.79,0,4.45,1.53,4.19,4.26-.19,2.11-.64,3.58.35,3.58a1.58,1.58,0,0,0,.64-.13l.4,1.95a3.84,3.84,0,0,1-2.38.82,2,2,0,0,1-2-1.44,3.65,3.65,0,0,1-3.08,1.44A2.89,2.89,0,0,1,113.31,11.43Zm5.89-.5a3.85,3.85,0,0,1,0-.48c-1.08-.29-2.86-.19-2.86.66,0,.41.35.61.9.61A2.8,2.8,0,0,0,119.2,10.93Z"/><path class="cls-3" d="M123.76,9.62c0-5.76,4-6.27,5.7-5.09V.16H133a78.81,78.81,0,0,0,0,13.91h-3.54V12.54a2.74,2.74,0,0,1-2.35,1.7C125.46,14.24,123.76,12.73,123.76,9.62Zm5.7.19v-3C129.19,6,127,5.7,127,9.09c0,1.33.41,2.19,1.11,2.19A1.68,1.68,0,0,0,129.46,9.81Z"/><path class="cls-2" d="M1.2,37.83l4.22-1.1c.22,1.1.74,2,1.5,2,1,0,1.56-.76,1.66-4.62A4.87,4.87,0,0,1,5.3,35.57C2.22,35.55,1,33,1,29.31V21.49H5.8a59.37,59.37,0,0,0-.38,7.26c0,2.32.42,3.24,1.28,3.24s1.58-.84,1.84-1.8c-.06-2.42-.2-6.14-.4-8.68h5l0,11.6c0,4.54-.6,9.54-6.14,9.54A5.73,5.73,0,0,1,1.2,37.83Z"/><path class="cls-2" d="M18.66,28.87c0-4.12,2.22-7.66,6.18-7.66s5.64,2.64,5.64,4.8c0,3.5-3.26,4.94-6.82,4.58a1.71,1.71,0,0,0,1.66,1.3,3,3,0,0,0,2.48-1.28l2.36,2a5.59,5.59,0,0,1-5.32,3.2C20.72,35.77,18.66,32.69,18.66,28.87Zm7.48-2.58c0-.82-.38-1.36-1.06-1.36-1.2,0-1.6,1.74-1.66,3.58A2.38,2.38,0,0,0,26.14,26.29Z"/><path class="cls-2" d="M36.82,35.49h-5a107.65,107.65,0,0,0,0-19h5Z"/><path class="cls-2" d="M42.8,31.57l3.32-1.32a3.16,3.16,0,0,0,2.72,2c.68,0,1.12-.32,1.12-1C50,29,43.22,30,43.22,25.77c0-2.54,2.32-4.48,5.66-4.48s6,1.48,6,4.06a6.11,6.11,0,0,1-.78,3L50,27.23a2.75,2.75,0,0,0,.36-1.38c0-.94-.44-1.48-1.2-1.48s-1.24.84-1.24,1.64c0,3.54,6.68,1.68,6.68,6.06,0,2.36-2.48,3.74-5.5,3.74C45.62,35.81,43.22,33.75,42.8,31.57Z"/><path class="cls-2" d="M55.44,31.87c0-4,4.42-4.62,8.2-3.72l0-.4c.2-1.64.28-3.1-.78-3.1s-1.28,1.64-1.48,2.64l-3.76-.64c0-1.76.14-5.28,4.58-5.28,3.82,0,6.1,2.1,5.74,5.84-.26,2.88-.88,4.9.48,4.9a2.24,2.24,0,0,0,.88-.18l.54,2.66a5.21,5.21,0,0,1-3.26,1.12,2.66,2.66,0,0,1-2.7-2,5,5,0,0,1-4.22,2A4,4,0,0,1,55.44,31.87Zm8.06-.68c0-.22,0-.44,0-.66-1.48-.4-3.92-.26-3.92.9,0,.56.48.84,1.24.84A3.85,3.85,0,0,0,63.5,31.19Z"/><path class="cls-2" d="M72.44,35.49H70.32a108.1,108.1,0,0,0,0-19h4.84v6.08c2.42-1.76,7.66-1.48,7.66,6.34,0,4.66-2.14,6.84-4.72,6.84C75.74,35.71,74.72,35.49,72.44,35.49Zm5.94-6.86c0-3.66-2.12-4.1-3.22-2.6v6.28a10.28,10.28,0,0,0,1,0C77.6,32.35,78.38,30.93,78.38,28.63Z"/><path class="cls-2" d="M83.54,28.47c0-3.84,2-7.18,6.38-7.18s6.38,3.34,6.38,7.18-2.06,7.26-6.38,7.26S83.54,32.21,83.54,28.47Zm8.2-.08c0-1.76-.58-3.86-1.82-3.86s-1.8,2.1-1.8,3.86.52,4.08,1.8,4.08S91.74,30.27,91.74,28.39Z"/><path class="cls-2" d="M101.8,35.49H97a58.54,58.54,0,0,0,0-14h4.84V23a4.64,4.64,0,0,1,3.52-1.58c2.46,0,3.94,2.06,3.74,5.38l-4.28.5c0-1.24-.12-2.6-1.22-2.6s-1.66,1.74-1.76,3.48Z"/><path class="cls-2" d="M114.58,31.57l3.32-1.32a3.16,3.16,0,0,0,2.72,2c.68,0,1.12-.32,1.12-1C121.74,29,115,30,115,25.77c0-2.54,2.32-4.48,5.66-4.48s6,1.48,6,4.06a6.11,6.11,0,0,1-.78,3l-4.12-1.16a2.75,2.75,0,0,0,.36-1.38c0-.94-.44-1.48-1.2-1.48s-1.24.84-1.24,1.64c0,3.54,6.68,1.68,6.68,6.06,0,2.36-2.48,3.74-5.5,3.74C117.4,35.81,115,33.75,114.58,31.57Z"/><path class="cls-2" d="M127.3,28.87c0-4.12,2.22-7.66,6.18-7.66s5.64,2.64,5.64,4.8c0,3.5-3.26,4.94-6.82,4.58a1.71,1.71,0,0,0,1.66,1.3,3,3,0,0,0,2.48-1.28l2.36,2a5.59,5.59,0,0,1-5.32,3.2C129.36,35.77,127.3,32.69,127.3,28.87Zm7.48-2.58c0-.82-.38-1.36-1.06-1.36-1.2,0-1.6,1.74-1.66,3.58A2.38,2.38,0,0,0,134.78,26.29Z"/><path class="cls-2" d="M142.12,37.83l4.2-1c.08.62.32,2,1.14,2,1.16,0,1.44-2,1.36-8.7,0-1.8-.18-5.22-.44-8.54h5l0,10.8c0,5.1-.38,10.34-6,10.34C144.14,42.65,142.5,40.43,142.12,37.83Zm6-19.56c0-1.08.66-2.08,2.84-2.08s2.82,1,2.82,2.08-.66,2.08-2.82,2.08S148.1,19.35,148.1,18.27Z"/><path class="cls-2" d="M155.28,29.31V21.49h4.84a59.37,59.37,0,0,0-.38,7.26c0,2.32.42,3.24,1.28,3.24s1.7-1,1.86-2.08V21.49h4.84a58.21,58.21,0,0,0,0,14h-4.84V34.17a4.89,4.89,0,0,1-3.26,1.4C156.54,35.55,155.28,33,155.28,29.31Z"/><path class="cls-2" d="M173.66,35.49h-4.84a58.54,58.54,0,0,0,0-14h4.84v1.38a4.62,4.62,0,0,1,3.3-1.5c3,0,4.38,2.6,4.38,6.26v7.86H176.5a60,60,0,0,0,.38-7.3c0-2.32-.42-3.24-1.28-3.24A2.3,2.3,0,0,0,173.66,27Z"/><path class="cls-2" d="M183.78,26.91v-.8h-1.62l-.68-3.58h2.3l0-5h5c-.14,1.18-.26,3.18-.32,5h4.3l-.66,3.58h-3.72c-.08,3.18-.26,5.86.76,5.86.82,0,1-1.38,1.08-2l4,.74c-.22,2.6-2,5.18-5.26,5.18C183.9,35.89,183.78,31.61,183.78,26.91Z"/><path class="cls-2" d="M194.82,31.87c0-4,4.42-4.62,8.2-3.72l0-.4c.2-1.64.28-3.1-.78-3.1s-1.28,1.64-1.48,2.64L197,26.65c0-1.76.14-5.28,4.58-5.28,3.82,0,6.1,2.1,5.74,5.84-.26,2.88-.88,4.9.48,4.9a2.24,2.24,0,0,0,.88-.18l.54,2.66A5.21,5.21,0,0,1,206,35.71a2.66,2.66,0,0,1-2.7-2,5,5,0,0,1-4.22,2A4,4,0,0,1,194.82,31.87Zm8.06-.68c0-.22,0-.44,0-.66-1.48-.4-3.92-.26-3.92.9,0,.56.48.84,1.24.84A3.85,3.85,0,0,0,202.88,31.19Z"/><path class="cls-2" d="M214.54,35.49H209.7a58.54,58.54,0,0,0,0-14h4.84v1.38a4.62,4.62,0,0,1,3.3-1.5c3,0,4.38,2.6,4.38,6.26v7.86h-4.84a60,60,0,0,0,.38-7.3c0-2.32-.42-3.24-1.28-3.24A2.3,2.3,0,0,0,214.54,27Z"/><path class="cls-2" d="M223.84,33.79c0-1.06.68-2,2.88-2s2.86,1,2.86,2-.68,2-2.86,2S223.84,34.83,223.84,33.79Z"/><circle class="cls-3" cx="8.29" cy="58.6" r="4.73"/><path class="cls-4" d="M7.07,61.18a.2.2,0,0,0,.13.17.19.19,0,0,0,.21,0,.12.12,0,0,0,0-.05l2.42-2.41a.21.21,0,0,0,0-.34c-.81-.82-1.63-1.63-2.45-2.45A.2.2,0,0,0,7.19,56a.21.21,0,0,0-.12.21.28.28,0,0,0,.08.15l1,1,1.29,1.29s0,.06,0,.09L7.16,61A.25.25,0,0,0,7.07,61.18Z"/><path class="cls-3" d="M24.55,56.1a.81.81,0,0,1,.27.62.85.85,0,0,1-.27.64,1.09,1.09,0,0,1-1.39,0,.85.85,0,0,1-.27-.64.81.81,0,0,1,.27-.62,1.09,1.09,0,0,1,1.39,0Zm-1.4,2.18h1.37l.19,4.54H23Z"/><path class="cls-3" d="M31.11,57.82a1.92,1.92,0,0,1-.82.77,2.82,2.82,0,0,1-1.36.29h-1v2.4H26.3V54.62h2.63a3,3,0,0,1,1.34.27,1.92,1.92,0,0,1,.83.76,2.35,2.35,0,0,1,0,2.17Zm-1.62-.44a.81.81,0,0,0,.23-.62.79.79,0,0,0-.23-.62,1,1,0,0,0-.69-.22h-.88v1.67h.88A1,1,0,0,0,29.49,57.38Z"/><path class="cls-3" d="M32.34,55.18a.86.86,0,0,1,0-1.25,1.08,1.08,0,0,1,1.38,0,.86.86,0,0,1,0,1.25,1.08,1.08,0,0,1-1.38,0Zm1.5.8v5.3H32.22V56Z"/><path class="cls-3" d="M35,57.19a2.36,2.36,0,0,1,.84-.95A2.22,2.22,0,0,1,37,55.91a2.14,2.14,0,0,1,.95.21,1.79,1.79,0,0,1,.68.59V54.25h1.62v7H38.66v-.76a1.64,1.64,0,0,1-.65.6,2,2,0,0,1-1,.23A2.22,2.22,0,0,1,35.84,61a2.46,2.46,0,0,1-.84-1,3.31,3.31,0,0,1-.31-1.44A3.24,3.24,0,0,1,35,57.19Zm3.32.48a1.14,1.14,0,0,0-1.64,0,1.31,1.31,0,0,0-.33.95,1.35,1.35,0,0,0,.33,1,1.12,1.12,0,0,0,1.64,0,1.33,1.33,0,0,0,.34-1A1.3,1.3,0,0,0,38.32,57.67Z"/><path class="cls-3" d="M46.42,59H42.75a1.09,1.09,0,0,0,.32.75.93.93,0,0,0,.69.26.85.85,0,0,0,.84-.51h1.73a2.4,2.4,0,0,1-.48.94,2.27,2.27,0,0,1-.87.65,2.78,2.78,0,0,1-1.17.24A2.82,2.82,0,0,1,42.43,61a2.35,2.35,0,0,1-1-1,2.89,2.89,0,0,1-.34-1.44,3,3,0,0,1,.33-1.44,2.35,2.35,0,0,1,1-.95,2.86,2.86,0,0,1,1.39-.33,2.77,2.77,0,0,1,1.37.32,2.23,2.23,0,0,1,.93.92,2.73,2.73,0,0,1,.34,1.39A4,4,0,0,1,46.42,59Zm-1.63-.9a.85.85,0,0,0-.28-.67,1.08,1.08,0,0,0-.72-.24,1,1,0,0,0-.68.23,1,1,0,0,0-.35.68Z"/><path class="cls-3" d="M54.72,56,51.4,63.79H49.66l1.21-2.69L48.72,56h1.81l1.22,3.31L53,56Z"/><path class="cls-3" d="M55.3,57.19a2.23,2.23,0,0,1,.84-.95,2.19,2.19,0,0,1,1.18-.33,2.09,2.09,0,0,1,1,.22,1.79,1.79,0,0,1,.65.6V56h1.62v5.3H59v-.75a1.8,1.8,0,0,1-.66.59,2,2,0,0,1-1,.23A2.15,2.15,0,0,1,56.14,61a2.31,2.31,0,0,1-.84-1A3.18,3.18,0,0,1,55,58.62,3.1,3.1,0,0,1,55.3,57.19Zm3.32.48a1.12,1.12,0,0,0-.82-.35,1.07,1.07,0,0,0-.82.35,1.27,1.27,0,0,0-.34.95,1.31,1.31,0,0,0,.34,1,1.08,1.08,0,0,0,.82.36,1.12,1.12,0,0,0,.82-.35,1.37,1.37,0,0,0,.34-1A1.34,1.34,0,0,0,58.62,57.67Z"/><path class="cls-3" d="M62.34,61.1a.81.81,0,0,1-.27-.62.85.85,0,0,1,.27-.64,1,1,0,0,1,.7-.25,1,1,0,0,1,.68.25.85.85,0,0,1,.27.64.81.81,0,0,1-.27.62,1,1,0,0,1-.68.25A1,1,0,0,1,62.34,61.1Zm1.55-6.72-.19,4.54H62.32l-.18-4.54Z"/></g></g></svg>